<svg width="24" height="24" viewBox="0 0 24 24" fill="none" xmlns="http://www.w3.org/2000/svg">
<path d="M5.13437 12.3382L10.3188 17.8382C10.4219 17.9475 10.5906 18.0007 10.7031 18.0007C10.8277 18.0007 10.9528 17.9577 11.0519 17.8708C11.2635 17.6852 11.2792 17.3689 11.0868 17.1648L6.69063 12.5007H18.4816C18.7682 12.5007 19 12.2771 19 12.0288C19 11.7805 18.7681 11.5007 18.4816 11.5007H6.69094L11.0878 6.83503C11.2802 6.63093 11.2645 6.3144 11.0529 6.12909C10.8407 5.94453 10.5132 5.95818 10.3201 6.16328L5.13569 11.6633C4.95625 11.8538 4.95625 12.1475 5.13437 12.3382Z" fill="white"/>
</svg>
