<svg width="14" height="12" viewBox="0 0 14 12" fill="none" xmlns="http://www.w3.org/2000/svg">
<path d="M13.8661 6.33806L8.68174 11.8381C8.57861 11.9474 8.40986 12.0006 8.29736 12.0006C8.1728 12.0006 8.04774 11.9576 7.94861 11.8707C7.73696 11.6851 7.72127 11.3688 7.91368 11.1647L12.3099 6.50056H0.518926C0.232332 6.50056 0.000488281 6.27697 0.000488281 6.02869C0.000488281 5.7804 0.232395 5.50056 0.518926 5.50056H12.3096L7.91268 0.834935C7.72027 0.630842 7.73596 0.314311 7.94761 0.128998C8.15977 -0.0555645 8.4873 -0.0419082 8.68043 0.163186L13.8648 5.66319C14.0442 5.85368 14.0442 6.14743 13.8661 6.33806Z" fill="white"/>
</svg>
