<svg width="20" height="20" viewBox="0 0 20 20" fill="none" xmlns="http://www.w3.org/2000/svg">
<path d="M6.46538 5.5815C6.2213 5.33742 5.82557 5.33742 5.5815 5.5815C5.33742 5.82557 5.33742 6.2213 5.5815 6.46538L9.11705 10.0009L5.58154 13.5364C5.33747 13.7805 5.33747 14.1763 5.58154 14.4203C5.82562 14.6644 6.22135 14.6644 6.46543 14.4203L10.0009 10.8848L13.5364 14.4203C13.7805 14.6644 14.1763 14.6644 14.4203 14.4203C14.6644 14.1763 14.6644 13.7805 14.4203 13.5364L10.8848 10.0009L14.4204 6.46538C14.6645 6.2213 14.6645 5.82557 14.4204 5.5815C14.1763 5.33742 13.7806 5.33742 13.5365 5.5815L10.0009 9.11705L6.46538 5.5815Z" fill="white"/>
</svg>
