<svg width="21" height="21" viewBox="0 0 21 21" fill="none" xmlns="http://www.w3.org/2000/svg">
<path d="M10.2973 10.2456L10.3255 17.7455C10.3268 18.0907 10.6076 18.3695 10.9528 18.3682C11.298 18.3669 11.5768 18.086 11.5755 17.7408L11.5473 10.2409C11.546 9.89573 11.2651 9.61696 10.9199 9.61826C10.5747 9.61955 10.296 9.90043 10.2973 10.2456Z" fill="white"/>
<path d="M10.2737 3.99585L10.2878 7.74582C10.2891 8.09099 10.57 8.36976 10.9152 8.36846C11.2603 8.36717 11.5391 8.0863 11.5378 7.74112L11.5237 3.99115C11.5224 3.64597 11.2415 3.3672 10.8964 3.3685C10.5512 3.3698 10.2724 3.65067 10.2737 3.99585Z" fill="white"/>
<path d="M16.5684 15.8473C16.2232 15.8486 15.9444 16.1294 15.9457 16.4746L15.9504 17.7246C15.9517 18.0698 16.2326 18.3485 16.5778 18.3472C16.9229 18.3459 17.2017 18.0651 17.2004 17.7199L17.1957 16.4699C17.1944 16.1247 16.9135 15.846 16.5684 15.8473Z" fill="white"/>
<path d="M15.8987 3.9746L15.9363 13.9745C15.9376 14.3197 16.2185 14.5985 16.5636 14.5972C16.9088 14.5959 17.1876 14.315 17.1863 13.9698L17.1487 3.96991C17.1474 3.62473 16.8665 3.34596 16.5214 3.34726C16.1762 3.34856 15.8974 3.62943 15.8987 3.9746Z" fill="white"/>
<path d="M18.4339 13.3402L14.684 13.3543C14.3388 13.3556 14.06 13.6365 14.0613 13.9817C14.0626 14.3269 14.3435 14.6056 14.6887 14.6043L18.4386 14.5902C18.7838 14.5889 19.0626 14.3081 19.0613 13.9629C19.06 13.6177 18.7791 13.3389 18.4339 13.3402Z" fill="white"/>
<path d="M4.68643 14.0168L4.70053 17.7668C4.70183 18.112 4.9827 18.3908 5.32787 18.3895C5.67305 18.3882 5.95182 18.1073 5.95052 17.7621L5.93642 14.0121C5.93513 13.667 5.65425 13.3882 5.30908 13.3895C4.9639 13.3908 4.68513 13.6717 4.68643 14.0168Z" fill="white"/>
<path d="M4.64883 4.01684L4.67703 11.5168C4.67833 11.862 4.9592 12.1407 5.30437 12.1394C5.64955 12.1381 5.92832 11.8573 5.92702 11.5121L5.89883 4.01214C5.89753 3.66697 5.61666 3.3882 5.27148 3.3895C4.9263 3.39079 4.64754 3.67167 4.64883 4.01684Z" fill="white"/>
<path d="M3.42938 12.1466L7.17935 12.1325C7.52453 12.1312 7.80329 11.8503 7.802 11.5051C7.8007 11.16 7.51983 10.8812 7.17465 10.8825L3.42468 10.8966C3.0795 10.8979 2.80073 11.1787 2.80203 11.5239C2.80333 11.8691 3.0842 12.1479 3.42938 12.1466Z" fill="white"/>
<path d="M12.7855 7.11124L9.03552 7.12534C8.69034 7.12663 8.41157 7.40751 8.41287 7.75268C8.41417 8.09786 8.69504 8.37662 9.04022 8.37533L12.7902 8.36123C13.1354 8.35993 13.4141 8.07906 13.4128 7.73389C13.4115 7.38871 13.1307 7.10994 12.7855 7.11124Z" fill="white"/>
</svg>
