<svg width="24" height="24" viewBox="0 0 24 24" fill="none" xmlns="http://www.w3.org/2000/svg">
<path d="M14.25 3V8.25H19.5L14.25 3Z" fill="#E36C2D"/>
<path fill-rule="evenodd" clip-rule="evenodd" d="M3.75 20.25V15.75C3.75 15.3358 4.08579 15 4.5 15H6C6 15 6.93198 15 7.59099 15.659C7.59099 15.659 8.25 16.318 8.25 17.25C8.25 17.25 8.25 18.182 7.59099 18.841C7.59099 18.841 6.93198 19.5 6 19.5H5.25V20.25C5.25 20.6642 4.91421 21 4.5 21C4.08579 21 3.75 20.6642 3.75 20.25ZM6 18H5.25V16.5H6C6 16.5 6.31066 16.5 6.53033 16.7197C6.53033 16.7197 6.75 16.9393 6.75 17.25C6.75 17.25 6.75 17.5607 6.53033 17.7803C6.53033 17.7803 6.31066 18 6 18Z" fill="#0B2866"/>
<path fill-rule="evenodd" clip-rule="evenodd" d="M9.75 20.25V15.75C9.75 15.3358 10.0858 15 10.5 15H12C12 15 12.932 15 13.591 15.659C13.591 15.659 14.25 16.318 14.25 17.25C14.25 17.25 14.25 18.182 13.591 18.841C13.591 18.841 12.932 19.5 12 19.5H11.25V20.25C11.25 20.6642 10.9142 21 10.5 21C10.0858 21 9.75 20.6642 9.75 20.25ZM12 18H11.25V16.5H12C12 16.5 12.3107 16.5 12.5303 16.7197C12.5303 16.7197 12.75 16.9393 12.75 17.25C12.75 17.25 12.75 17.5607 12.5303 17.7803C12.5303 17.7803 12.3107 18 12 18Z" fill="#0B2866"/>
<path d="M19.5 15H16.125C15.7108 15 15.375 15.3358 15.375 15.75C15.375 16.1642 15.7108 16.5 16.125 16.5H19.5C19.9142 16.5 20.25 16.1642 20.25 15.75C20.25 15.3358 19.9142 15 19.5 15Z" fill="#0B2866"/>
<path d="M18.5625 20.25V15.75C18.5625 15.3358 18.2267 15 17.8125 15C17.3983 15 17.0625 15.3358 17.0625 15.75V20.25C17.0625 20.6642 17.3983 21 17.8125 21C18.2267 21 18.5625 20.6642 18.5625 20.25Z" fill="#0B2866"/>
<path d="M18.75 8.56066V12C18.75 12.4142 19.0858 12.75 19.5 12.75C19.9142 12.75 20.25 12.4142 20.25 12V8.25C20.25 8.05109 20.171 7.86032 20.0303 7.71967L14.7803 2.46967C14.6397 2.32902 14.4489 2.25 14.25 2.25L5.25 2.25C4.62868 2.25 4.18934 2.68934 4.18934 2.68934C3.75 3.12868 3.75 3.75 3.75 3.75V12C3.75 12.4142 4.08579 12.75 4.5 12.75C4.91421 12.75 5.25 12.4142 5.25 12V3.75H13.9393L18.75 8.56066Z" fill="#0B2866"/>
<path d="M14.25 9H19.5C19.9142 9 20.25 8.66421 20.25 8.25C20.25 7.83579 19.9142 7.5 19.5 7.5H15V3C15 2.58579 14.6642 2.25 14.25 2.25C13.8358 2.25 13.5 2.58579 13.5 3V8.25C13.5 8.66421 13.8358 9 14.25 9Z" fill="#0B2866"/>
</svg>
