<svg width="55" height="54" viewBox="0 0 55 54" fill="none" xmlns="http://www.w3.org/2000/svg">
<path fill-rule="evenodd" clip-rule="evenodd" d="M9.78125 47.25C8.84927 47.25 8.09375 46.4945 8.09375 45.5625V35.4375C8.09375 34.5055 8.84927 33.75 9.78125 33.75H12.7344C12.7344 33.75 15.5303 33.75 17.5073 35.727C17.5073 35.727 19.4844 37.7041 19.4844 40.5C19.4844 40.5 19.4844 43.2959 17.5073 45.273C17.5073 45.273 15.5303 47.25 12.7344 47.25H9.78125ZM12.7344 43.875H11.4688V37.125H12.7344C12.7344 37.125 14.1323 37.125 15.1209 38.1135C15.1209 38.1135 16.1094 39.102 16.1094 40.5C16.1094 40.5 16.1094 41.898 15.1209 42.8865C15.1209 42.8865 14.1323 43.875 12.7344 43.875Z" fill="#0B2866"/>
<path fill-rule="evenodd" clip-rule="evenodd" d="M27.9219 33.75C27.9219 33.75 30.5864 33.75 32.4472 35.78C32.4472 35.78 34.25 37.7466 34.25 40.5C34.25 40.5 34.25 43.2534 32.4472 45.22C32.4472 45.22 30.5864 47.25 27.9219 47.25C27.9219 47.25 25.2573 47.25 23.3965 45.22C23.3965 45.22 21.5938 43.2534 21.5938 40.5C21.5938 40.5 21.5938 37.7466 23.3965 35.78C23.3965 35.78 25.2573 33.75 27.9219 33.75ZM27.9219 37.125C27.9219 37.125 26.742 37.125 25.8844 38.0606C25.8844 38.0606 24.9688 39.0595 24.9688 40.5C24.9688 40.5 24.9688 41.9405 25.8844 42.9394C25.8844 42.9394 26.742 43.875 27.9219 43.875C27.9219 43.875 29.1018 43.875 29.9593 42.9394C29.9593 42.9394 30.875 41.9405 30.875 40.5C30.875 40.5 30.875 39.0595 29.9593 38.0606C29.9593 38.0606 29.1018 37.125 27.9219 37.125Z" fill="#0B2866"/>
<path d="M42.252 37.1249C43.3038 37.1334 44.0801 37.8431 44.0801 37.8431C44.3912 38.1274 44.7973 38.2851 45.2188 38.2851C45.2439 38.2851 45.2691 38.2845 45.2943 38.2834C45.7414 38.2634 46.1623 38.0665 46.4642 37.7362C46.7486 37.4252 46.9062 37.019 46.9062 36.5976L46.9062 36.5929C46.9062 36.5693 46.9056 36.5456 46.9046 36.522C46.8845 36.0749 46.6877 35.6541 46.3574 35.3521C44.6256 33.7689 42.2792 33.75 42.2792 33.75C39.5934 33.7499 37.7362 35.7765 37.7362 35.7765C35.9375 37.7392 35.9375 40.4999 35.9375 40.4999C35.9375 43.2607 37.7362 45.2234 37.7362 45.2234C39.5934 47.2499 42.2656 47.2499 42.2656 47.2499C44.6256 47.231 46.3574 45.6478 46.3574 45.6478C46.7071 45.3281 46.9062 44.8761 46.9062 44.4023L46.9062 44.3905C46.9033 43.9732 46.7458 43.5717 46.4642 43.2637C46.1445 42.914 45.6926 42.7148 45.2188 42.7148L45.207 42.7148C44.7896 42.7177 44.3882 42.8752 44.0801 43.1568C43.3038 43.8665 42.2656 43.8749 42.2656 43.8749C41.0783 43.8749 40.2244 42.9431 40.2244 42.9431C39.3125 41.9481 39.3125 40.4999 39.3125 40.4999C39.3125 39.0518 40.2244 38.0568 40.2244 38.0568C41.0783 37.1249 42.252 37.1249 42.252 37.1249Z" fill="#0B2866"/>
<path d="M32.5625 6.75V18.5625H44.375L32.5625 6.75Z" fill="#608DF1"/>
<path d="M42.6875 19.2615V27C42.6875 27.932 43.443 28.6875 44.375 28.6875C45.307 28.6875 46.0625 27.932 46.0625 27V18.5625C46.0625 18.1149 45.8847 17.6857 45.5682 17.3693L33.7557 5.55676C33.4393 5.24029 33.0101 5.0625 32.5625 5.0625L12.3125 5.0625C10.9145 5.0625 9.92601 6.05102 9.92601 6.05102C8.9375 7.03953 8.9375 8.4375 8.9375 8.4375V27C8.9375 27.932 9.69302 28.6875 10.625 28.6875C11.557 28.6875 12.3125 27.932 12.3125 27V8.4375H31.8635L42.6875 19.2615Z" fill="#0B2866"/>
<path d="M32.5625 20.25H44.375C45.307 20.25 46.0625 19.4945 46.0625 18.5625C46.0625 17.6305 45.307 16.875 44.375 16.875H34.25V6.75C34.25 5.81802 33.4945 5.0625 32.5625 5.0625C31.6305 5.0625 30.875 5.81802 30.875 6.75V18.5625C30.875 19.4945 31.6305 20.25 32.5625 20.25Z" fill="#0B2866"/>
</svg>
