<svg width="55" height="54" viewBox="0 0 55 54" fill="none" xmlns="http://www.w3.org/2000/svg">
<path d="M25.8125 47.25H31.7188C32.6507 47.25 33.4062 46.4945 33.4062 45.5625C33.4062 44.6305 32.6507 43.875 31.7188 43.875H27.5V35.4375C27.5 34.5055 26.7445 33.75 25.8125 33.75C24.8805 33.75 24.125 34.5055 24.125 35.4375V45.5625C24.125 46.4945 24.8805 47.25 25.8125 47.25Z" fill="#0B2866"/>
<path d="M17.7121 46.5744L17.7125 46.575C17.981 46.933 18.3808 47.1697 18.8239 47.233C18.9029 47.2443 18.9826 47.25 19.0625 47.25L19.0683 47.25C19.4314 47.2487 19.7845 47.1304 20.075 46.9125C20.4999 46.5938 20.75 46.0937 20.75 45.5625L20.7499 45.5404C20.7452 45.1828 20.627 44.836 20.4125 44.55L12.8187 34.425C12.5502 34.067 12.1505 33.8303 11.7074 33.767C11.6284 33.7557 11.5486 33.75 11.4688 33.75L11.463 33.75C11.0998 33.7513 10.7468 33.8696 10.4562 34.0875C10.0982 34.356 9.8615 34.7558 9.79821 35.1989C9.78692 35.2779 9.78125 35.3576 9.78125 35.4375L9.78126 35.4433C9.78251 35.8064 9.90086 36.1595 10.1187 36.45L17.7121 46.5744Z" fill="#0B2866"/>
<path d="M10.1187 44.55C9.89968 44.8421 9.78125 45.1974 9.78125 45.5625L9.78132 45.5774C9.78197 45.6522 9.78762 45.727 9.79821 45.8012C9.8615 46.2442 10.0982 46.644 10.4562 46.9125C10.7483 47.1316 11.1036 47.25 11.4688 47.25L11.4836 47.2499C11.5585 47.2493 11.6333 47.2436 11.7074 47.233C12.1505 47.1697 12.5502 46.933 12.8187 46.575L20.4125 36.45C20.6316 36.1579 20.75 35.8026 20.75 35.4375L20.7499 35.4226C20.7493 35.3478 20.7436 35.273 20.733 35.1989C20.6697 34.7558 20.433 34.356 20.075 34.0875C19.7829 33.8684 19.4276 33.75 19.0625 33.75L19.0476 33.7501C18.9728 33.7507 18.898 33.7564 18.8239 33.767C18.3808 33.8303 17.981 34.067 17.7125 34.425L10.1187 44.55Z" fill="#0B2866"/>
<path d="M40.7846 36.9141C41.9833 36.9172 42.9442 37.6339 42.9442 37.6339C43.2357 37.8513 43.5895 37.9687 43.9531 37.9687C43.9762 37.9687 43.9993 37.9683 44.0224 37.9673C44.5304 37.9464 45.0018 37.6977 45.3058 37.2902C45.5232 36.9987 45.6406 36.6448 45.6406 36.2812L45.6405 36.2619C45.6397 36.187 45.6338 36.1123 45.623 36.0382C45.5586 35.5953 45.3208 35.1962 44.9621 34.9286C43.1073 33.5452 40.7935 33.5391 40.7935 33.5391C38.7322 33.5391 37.3969 34.6836 37.3969 34.6836C35.9375 35.9345 35.9375 37.9687 35.9375 37.9687C35.9375 39.9781 37.8012 41.0614 37.8012 41.0614C38.6131 41.5334 40.4855 42.0303 40.4855 42.0303C42.6875 42.6146 42.6875 43.0312 42.6875 43.0312C42.6875 43.578 42.3843 43.772 42.3843 43.772C41.8938 44.0859 40.7891 44.0859 40.7891 44.0859C39.5955 44.0828 38.635 43.3669 38.635 43.3669L38.6339 43.3661C38.3425 43.1487 37.9886 43.0312 37.625 43.0312C37.6019 43.0312 37.5788 43.0317 37.5557 43.0327C37.0477 43.0535 36.5763 43.3023 36.2723 43.7098C36.0549 44.0013 35.9375 44.3551 35.9375 44.7187L35.9376 44.7381C35.9385 44.8129 35.9443 44.8877 35.9551 44.9618C36.0196 45.4047 36.2573 45.8038 36.6161 46.0714L36.6172 46.0722C38.4715 47.4548 40.7891 47.4609 40.7891 47.4609C42.8813 47.4609 44.2036 46.6147 44.2036 46.6147C46.0625 45.425 46.0625 43.0312 46.0625 43.0312C46.0625 40.9295 44.1526 39.7927 44.1526 39.7927C43.3002 39.2854 41.3512 38.7682 41.3512 38.7682C39.3125 38.2272 39.3125 37.9687 39.3125 37.9687C39.3125 36.9141 40.7846 36.9141 40.7846 36.9141Z" fill="#0B2866"/>
<path d="M32.5625 6.75V18.5625H44.375L32.5625 6.75Z" fill="#1D7C4D"/>
<path d="M42.6875 19.2615V27C42.6875 27.932 43.443 28.6875 44.375 28.6875C45.307 28.6875 46.0625 27.932 46.0625 27V18.5625C46.0625 18.1149 45.8847 17.6857 45.5682 17.3693L33.7557 5.55676C33.4393 5.24029 33.0101 5.0625 32.5625 5.0625L12.3125 5.0625C10.9145 5.0625 9.92601 6.05102 9.92601 6.05102C8.9375 7.03953 8.9375 8.4375 8.9375 8.4375V27C8.9375 27.932 9.69302 28.6875 10.625 28.6875C11.557 28.6875 12.3125 27.932 12.3125 27V8.4375H31.8635L42.6875 19.2615Z" fill="#0B2866"/>
<path d="M32.5625 20.25H44.375C45.307 20.25 46.0625 19.4945 46.0625 18.5625C46.0625 17.6305 45.307 16.875 44.375 16.875H34.25V6.75C34.25 5.81802 33.4945 5.0625 32.5625 5.0625C31.6305 5.0625 30.875 5.81802 30.875 6.75V18.5625C30.875 19.4945 31.6305 20.25 32.5625 20.25Z" fill="#0B2866"/>
</svg>
