<svg width="24" height="24" viewBox="0 0 24 24" fill="none" xmlns="http://www.w3.org/2000/svg">
<path d="M14.25 3V8.25H19.5L14.25 3Z" fill="#C53434"/>
<path d="M18.75 8.56066V12C18.75 12.4142 19.0858 12.75 19.5 12.75C19.9142 12.75 20.25 12.4142 20.25 12V8.25C20.25 8.05109 20.171 7.86032 20.0303 7.71967L14.7803 2.46967C14.6397 2.32902 14.4489 2.25 14.25 2.25L5.25 2.25C4.62868 2.25 4.18934 2.68934 4.18934 2.68934C3.75 3.12868 3.75 3.75 3.75 3.75V12C3.75 12.4142 4.08579 12.75 4.5 12.75C4.91421 12.75 5.25 12.4142 5.25 12V3.75H13.9393L18.75 8.56066Z" fill="#0B2866"/>
<path d="M14.25 9H19.5C19.9142 9 20.25 8.66421 20.25 8.25C20.25 7.83579 19.9142 7.5 19.5 7.5H15V3C15 2.58579 14.6642 2.25 14.25 2.25C13.8358 2.25 13.5 2.58579 13.5 3V8.25C13.5 8.66421 13.8358 9 14.25 9Z" fill="#0B2866"/>
<path fill-rule="evenodd" clip-rule="evenodd" d="M3.75 20.25V15.75C3.75 15.3358 4.08579 15 4.5 15H6C6 15 6.93198 15 7.59099 15.659C7.59099 15.659 8.25 16.318 8.25 17.25C8.25 17.25 8.25 18.182 7.59099 18.841C7.59099 18.841 6.93198 19.5 6 19.5H5.25V20.25C5.25 20.6642 4.91421 21 4.5 21C4.08579 21 3.75 20.6642 3.75 20.25ZM6 18H5.25V16.5H6C6 16.5 6.31066 16.5 6.53033 16.7197C6.53033 16.7197 6.75 16.9393 6.75 17.25C6.75 17.25 6.75 17.5607 6.53033 17.7803C6.53033 17.7803 6.31066 18 6 18Z" fill="#0B2866"/>
<path d="M16.875 15.75V20.25C16.875 20.6642 17.2108 21 17.625 21C18.0392 21 18.375 20.6642 18.375 20.25V16.5H20.25C20.6642 16.5 21 16.1642 21 15.75C21 15.3358 20.6642 15 20.25 15H17.625C17.2108 15 16.875 15.3358 16.875 15.75Z" fill="#0B2866"/>
<path d="M19.875 17.625H17.625C17.2108 17.625 16.875 17.9608 16.875 18.375C16.875 18.7892 17.2108 19.125 17.625 19.125H19.875C20.2892 19.125 20.625 18.7892 20.625 18.375C20.625 17.9608 20.2892 17.625 19.875 17.625Z" fill="#0B2866"/>
<path fill-rule="evenodd" clip-rule="evenodd" d="M10.6875 21C10.2733 21 9.9375 20.6642 9.9375 20.25V15.75C9.9375 15.3358 10.2733 15 10.6875 15H12C12 15 13.2426 15 14.1213 15.8787C14.1213 15.8787 15 16.7574 15 18C15 18 15 19.2426 14.1213 20.1213C14.1213 20.1213 13.2426 21 12 21H10.6875ZM12 19.5H11.4375V16.5H12C12 16.5 12.6213 16.5 13.0607 16.9393C13.0607 16.9393 13.5 17.3787 13.5 18C13.5 18 13.5 18.6213 13.0607 19.0607C13.0607 19.0607 12.6213 19.5 12 19.5Z" fill="#0B2866"/>
</svg>
