<svg width="20" height="20" viewBox="0 0 20 20" fill="none" xmlns="http://www.w3.org/2000/svg">
<path fill-rule="evenodd" clip-rule="evenodd" d="M10 5.625C10 5.625 11.8122 5.625 13.0936 6.90641C13.0936 6.90641 14.375 8.18782 14.375 10C14.375 10 14.375 11.8122 13.0936 13.0936C13.0936 13.0936 11.8122 14.375 10 14.375C10 14.375 8.18782 14.375 6.90641 13.0936C6.90641 13.0936 5.625 11.8122 5.625 10C5.625 10 5.625 8.18782 6.90641 6.90641C6.90641 6.90641 8.18782 5.625 10 5.625ZM10 6.875C10 6.875 8.70558 6.875 7.79029 7.79029C7.79029 7.79029 6.875 8.70558 6.875 10C6.875 10 6.875 11.2944 7.79029 12.2097C7.79029 12.2097 8.70558 13.125 10 13.125C10 13.125 11.2944 13.125 12.2097 12.2097C12.2097 12.2097 13.125 11.2944 13.125 10C13.125 10 13.125 8.70558 12.2097 7.79029C12.2097 7.79029 11.2944 6.875 10 6.875Z" fill="#8D9CAD"/>
<path fill-rule="evenodd" clip-rule="evenodd" d="M16.0865 3.9949L16.0508 6.11849C16.0508 6.11849 16.236 6.40287 16.3899 6.70535L18.2419 7.735C18.3978 7.82171 18.5093 7.97092 18.5482 8.14506C18.5482 8.14506 18.9618 9.99768 18.5566 11.8522C18.5182 12.0278 18.4061 12.1784 18.2488 12.2655L16.3897 13.2952C16.3897 13.2952 16.2359 13.5974 16.0508 13.8815L16.0865 16.0051C16.0896 16.1846 16.0153 16.3567 15.8826 16.4776C15.8826 16.4776 14.4813 17.7546 12.6771 18.337C12.5054 18.3924 12.3182 18.3709 12.1635 18.2781L10.3366 17.182C10.3366 17.182 10.0005 17.197 9.66439 17.1819L7.84506 18.2707C7.69166 18.3625 7.5063 18.3842 7.33584 18.3303C7.33584 18.3303 5.52353 17.7578 4.11876 16.4776C3.98609 16.3567 3.9118 16.1845 3.91484 16.0051L3.95063 13.8863C3.95063 13.8863 3.76651 13.599 3.61177 13.2948L1.75948 12.265C1.60289 12.1779 1.49119 12.0279 1.45274 11.8529C1.45274 11.8529 1.04619 10.0023 1.44433 8.14992C1.48226 7.97343 1.59465 7.82197 1.75256 7.73451L3.61169 6.70484C3.61169 6.70484 3.76551 6.40263 3.95059 6.11849L3.91483 3.9949C3.91181 3.81542 3.9861 3.64331 4.11878 3.52241C4.11878 3.52241 5.52011 2.24545 7.32431 1.66304C7.49597 1.60762 7.68319 1.62908 7.83787 1.72188L9.6648 2.81804C9.6648 2.81804 10.0009 2.803 10.337 2.81806L12.1563 1.72932C12.3097 1.63752 12.4951 1.61581 12.6655 1.66966C12.6655 1.66966 14.4778 2.24223 15.8826 3.52243C16.0153 3.64333 16.0896 3.81543 16.0865 3.9949ZM14.7976 6.29417L14.8318 4.26285C14.8318 4.26285 13.8113 3.39841 12.5513 2.94969L10.8138 3.98943C10.7038 4.05527 10.5762 4.08568 10.4483 4.07653C10.4483 4.07653 10.0007 4.04452 9.55309 4.07653C9.42495 4.0857 9.2971 4.05516 9.18694 3.98906L7.44387 2.94322C7.44387 2.94322 6.18838 3.39902 5.16952 4.26277L5.20372 6.29417C5.20594 6.42576 5.16656 6.55469 5.09119 6.66258C5.09119 6.66258 4.83927 7.02325 4.65251 7.42158C4.59663 7.54074 4.50457 7.63923 4.38943 7.703L2.61257 8.68711C2.61257 8.68711 2.37963 10.0004 2.61894 11.3126L4.39033 12.2975C4.50459 12.361 4.59605 12.4588 4.65185 12.577C4.65185 12.577 4.84266 12.9814 5.09488 13.3506C5.16787 13.4574 5.2059 13.5843 5.20372 13.7137L5.16954 15.7372C5.16954 15.7372 6.19011 16.6016 7.45009 17.0503L9.18756 16.0106C9.29758 15.9447 9.42519 15.9143 9.55309 15.9235C9.55309 15.9235 10.0007 15.9555 10.4483 15.9235C10.5764 15.9143 10.7043 15.9448 10.8144 16.0109L12.5575 17.0568C12.5575 17.0568 13.813 16.601 14.8318 15.7372L14.7976 13.7058C14.7954 13.5742 14.8348 13.4453 14.9102 13.3374C14.9102 13.3374 15.1621 12.9768 15.3489 12.5784C15.4047 12.4593 15.4968 12.3608 15.6119 12.297L17.3899 11.3123C17.3899 11.3123 17.6268 9.99958 17.3835 8.68796L15.611 7.7025C15.4963 7.63872 15.4046 7.54043 15.3489 7.42158C15.3489 7.42158 15.1621 7.02325 14.9102 6.66258C14.8348 6.55469 14.7954 6.42576 14.7976 6.29417Z" fill="#8D9CAD"/>
</svg>
