<svg width="31" height="30" viewBox="0 0 31 30" fill="none" xmlns="http://www.w3.org/2000/svg">
<rect x="0.75" width="30" height="30" rx="5" fill="#D7E3FC"/>
<path d="M8.4375 10.2188H17.4375C18.0342 10.2188 18.6066 10.4558 19.0285 10.8778C19.4505 11.2997 19.6875 11.872 19.6875 12.4688V19.2188C19.6875 19.3679 19.6282 19.511 19.5227 19.6165C19.4172 19.722 19.2741 19.7812 19.125 19.7812H10.125C9.52831 19.7812 8.95592 19.5442 8.53404 19.1222C8.11203 18.7003 7.875 18.128 7.875 17.5312V10.7812C7.875 10.6321 7.93433 10.489 8.03979 10.3835C8.14526 10.278 8.28836 10.2188 8.4375 10.2188Z" fill="#AFC6F8"/>
<path fill-rule="evenodd" clip-rule="evenodd" d="M7.642 9.98576C7.642 9.98576 7.97151 9.65625 8.4375 9.65625H17.4375C17.4375 9.65625 18.6025 9.65625 19.4262 10.48C19.4262 10.48 20.25 11.3038 20.25 12.4688V19.2188C20.25 19.2188 20.25 19.6847 19.9205 20.0142C19.9205 20.0142 19.591 20.3438 19.125 20.3438H10.125C10.125 20.3438 8.96003 20.3437 8.13626 19.52C8.13626 19.52 7.3125 18.6962 7.3125 17.5312V10.7812C7.3125 10.7812 7.3125 10.3153 7.642 9.98576ZM8.4375 10.7812V17.5312C8.4375 17.5312 8.4375 18.2302 8.93176 18.7245C8.93176 18.7245 9.42602 19.2188 10.125 19.2188H19.125V12.4688C19.125 12.4688 19.125 11.7698 18.6307 11.2755C18.6307 11.2755 18.1365 10.7812 17.4375 10.7812H8.4375Z" fill="#0B2866"/>
<path d="M23.0625 17.4057L19.9666 15.6366C19.8816 15.588 19.7854 15.5625 19.6875 15.5625L19.6749 15.5626C19.6291 15.5637 19.5837 15.5703 19.5395 15.5823C19.3956 15.6216 19.2731 15.7164 19.1991 15.8459C19.1505 15.9309 19.125 16.0271 19.125 16.125C19.125 16.1362 19.1253 16.1475 19.126 16.1587C19.1374 16.3482 19.2436 16.5192 19.4084 16.6134L23.3459 18.8634C23.6157 19.0175 23.9593 18.9238 24.1134 18.6541C24.162 18.5691 24.1875 18.4729 24.1875 18.375V11.625C24.1875 11.3143 23.9357 11.0625 23.625 11.0625C23.5271 11.0625 23.4309 11.088 23.3459 11.1366L19.4084 13.3866C19.2332 13.4868 19.125 13.6731 19.125 13.875C19.125 13.8829 19.1252 13.8907 19.1255 13.8986C19.1293 13.9884 19.1545 14.076 19.1991 14.1541C19.2731 14.2836 19.3956 14.3784 19.5395 14.4177C19.5877 14.4308 19.6375 14.4375 19.6875 14.4375L19.7027 14.4373C19.7954 14.4348 19.8861 14.4094 19.9666 14.3634L23.0625 12.5943V17.4057Z" fill="#0B2866"/>
</svg>
