<svg width="31" height="30" viewBox="0 0 31 30" fill="none" xmlns="http://www.w3.org/2000/svg">
<rect x="0.25" width="30" height="30" rx="5" fill="#D7E3FC"/>
<path fill-rule="evenodd" clip-rule="evenodd" d="M9.34375 21.75C9.03309 21.75 8.78125 21.4982 8.78125 21.1875V17.8125C8.78125 17.5018 9.03309 17.25 9.34375 17.25H10.3281C10.3281 17.25 11.2601 17.25 11.9191 17.909C11.9191 17.909 12.5781 18.568 12.5781 19.5C12.5781 19.5 12.5781 20.432 11.9191 21.091C11.9191 21.091 11.2601 21.75 10.3281 21.75H9.34375ZM10.3281 20.625H9.90625V18.375H10.3281C10.3281 18.375 10.7941 18.375 11.1236 18.7045C11.1236 18.7045 11.4531 19.034 11.4531 19.5C11.4531 19.5 11.4531 19.966 11.1236 20.2955C11.1236 20.2955 10.7941 20.625 10.3281 20.625Z" fill="#0B2866"/>
<path fill-rule="evenodd" clip-rule="evenodd" d="M15.3906 17.25C15.3906 17.25 16.2788 17.25 16.8991 17.9267C16.8991 17.9267 17.5 18.5822 17.5 19.5C17.5 19.5 17.5 20.4178 16.8991 21.0733C16.8991 21.0733 16.2788 21.75 15.3906 21.75C15.3906 21.75 14.5024 21.75 13.8822 21.0733C13.8822 21.0733 13.2812 20.4178 13.2812 19.5C13.2812 19.5 13.2812 18.5822 13.8822 17.9267C13.8822 17.9267 14.5024 17.25 15.3906 17.25ZM15.3906 18.375C15.3906 18.375 14.9973 18.375 14.7115 18.6869C14.7115 18.6869 14.4062 19.0198 14.4062 19.5C14.4062 19.5 14.4062 19.9802 14.7115 20.3131C14.7115 20.3131 14.9973 20.625 15.3906 20.625C15.3906 20.625 15.7839 20.625 16.0698 20.3131C16.0698 20.3131 16.375 19.9802 16.375 19.5C16.375 19.5 16.375 19.0198 16.0698 18.6869C16.0698 18.6869 15.7839 18.375 15.3906 18.375Z" fill="#0B2866"/>
<path d="M20.1673 18.375C20.5179 18.3778 20.7767 18.6144 20.7767 18.6144C20.8804 18.7091 21.0158 18.7617 21.1562 18.7617C21.1646 18.7617 21.173 18.7615 21.1814 18.7611C21.3305 18.7545 21.4708 18.6888 21.5714 18.5787C21.6662 18.4751 21.7188 18.3397 21.7188 18.1992L21.7187 18.1976C21.7187 18.1898 21.7185 18.1819 21.7182 18.174C21.7115 18.025 21.6459 17.8847 21.5358 17.784C20.9585 17.2563 20.1764 17.25 20.1764 17.25C19.2811 17.25 18.6621 17.9255 18.6621 17.9255C18.0625 18.5797 18.0625 19.5 18.0625 19.5C18.0625 20.4202 18.6621 21.0745 18.6621 21.0745C19.2811 21.75 20.1719 21.75 20.1719 21.75C20.9585 21.7437 21.5358 21.2159 21.5358 21.2159C21.6524 21.1094 21.7188 20.9587 21.7188 20.8008L21.7187 20.7968C21.7178 20.6577 21.6653 20.5239 21.5714 20.4212C21.4648 20.3047 21.3142 20.2383 21.1562 20.2383L21.1523 20.2383C21.0132 20.2392 20.8794 20.2917 20.7767 20.3856C20.5179 20.6222 20.1719 20.625 20.1719 20.625C19.7761 20.625 19.4915 20.3144 19.4915 20.3144C19.1875 19.9827 19.1875 19.5 19.1875 19.5C19.1875 19.0173 19.4915 18.6856 19.4915 18.6856C19.7761 18.375 20.1673 18.375 20.1673 18.375Z" fill="#0B2866"/>
<path d="M16.9375 8.25V12.1875H20.875L16.9375 8.25Z" fill="#AFC6F8"/>
<path d="M20.3125 12.4205V15C20.3125 15.3107 20.5643 15.5625 20.875 15.5625C21.1857 15.5625 21.4375 15.3107 21.4375 15V12.1875C21.4375 12.0383 21.3782 11.8952 21.2727 11.7898L17.3352 7.85225C17.2298 7.74676 17.0867 7.6875 16.9375 7.6875L10.1875 7.6875C9.72151 7.6875 9.392 8.01701 9.392 8.01701C9.0625 8.34651 9.0625 8.8125 9.0625 8.8125V15C9.0625 15.3107 9.31434 15.5625 9.625 15.5625C9.93566 15.5625 10.1875 15.3107 10.1875 15V8.8125H16.7045L20.3125 12.4205Z" fill="#0B2866"/>
<path d="M16.9375 12.75H20.875C21.1857 12.75 21.4375 12.4982 21.4375 12.1875C21.4375 11.8768 21.1857 11.625 20.875 11.625H17.5V8.25C17.5 7.93934 17.2482 7.6875 16.9375 7.6875C16.6268 7.6875 16.375 7.93934 16.375 8.25V12.1875C16.375 12.4982 16.6268 12.75 16.9375 12.75Z" fill="#0B2866"/>
</svg>
