<svg width="30" height="30" viewBox="0 0 30 30" fill="none" xmlns="http://www.w3.org/2000/svg">
<rect width="30" height="30" rx="5" fill="#D7E3FC"/>
<path d="M8.8125 18.375V9.375C8.8125 9.22583 8.87183 9.08273 8.97729 8.97726C9.08276 8.87176 9.22586 8.8125 9.375 8.8125H20.625C20.7741 8.8125 20.9172 8.87176 21.0227 8.97726C21.1282 9.08273 21.1875 9.22583 21.1875 9.375V17.25L18.2132 14.2758C18.1609 14.2226 18.0986 14.1804 18.0298 14.1516C17.961 14.1228 17.8871 14.108 17.8125 14.108C17.7379 14.108 17.664 14.1228 17.5952 14.1516C17.5264 14.1804 17.4641 14.2226 17.4118 14.2758L14.2757 17.4117C14.2234 17.4649 14.1611 17.5071 14.0923 17.5359C14.0235 17.5647 13.9496 17.5795 13.875 17.5795C13.8004 17.5795 13.7265 17.5647 13.6577 17.5359C13.5889 17.5071 13.5266 17.4649 13.4743 17.4117L12.0257 15.9633C11.9734 15.9101 11.9111 15.8679 11.8423 15.8391C11.7735 15.8103 11.6996 15.7955 11.625 15.7955C11.5504 15.7955 11.4765 15.8103 11.4077 15.8391C11.3389 15.8679 11.2766 15.9101 11.2243 15.9633L8.8125 18.375Z" fill="#AFC6F8"/>
<path fill-rule="evenodd" clip-rule="evenodd" d="M8.25 9.375C8.25 9.375 8.25 8.90901 8.5795 8.5795C8.5795 8.5795 8.90901 8.25 9.375 8.25H20.625C20.625 8.25 21.091 8.25 21.4205 8.5795C21.4205 8.5795 21.75 8.90901 21.75 9.375V20.625C21.75 20.625 21.75 21.091 21.4205 21.4205C21.4205 21.4205 21.091 21.75 20.625 21.75H9.375C9.375 21.75 8.90901 21.75 8.5795 21.4205C8.5795 21.4205 8.25 21.091 8.25 20.625V9.375ZM9.375 9.375V20.625H20.625V9.375H9.375Z" fill="#0B2866"/>
<path d="M8.41496 17.9784L8.41475 17.9787C8.30926 18.0841 8.25 18.2272 8.25 18.3764C8.25 18.3854 8.25022 18.3944 8.25065 18.4034C8.25737 18.5431 8.31587 18.6753 8.41475 18.7742C8.52024 18.8796 8.66332 18.9389 8.8125 18.9389C8.96168 18.9389 9.10476 18.8796 9.21025 18.7742L9.21046 18.7739L11.622 16.3624C11.625 16.3594 11.625 16.3594 11.625 16.3594L13.0765 17.8109C13.232 17.9688 13.4405 18.0561 13.4405 18.0561C13.649 18.1434 13.875 18.1434 13.875 18.1434C14.101 18.1434 14.3095 18.0561 14.3095 18.0561C14.518 17.9688 14.6766 17.8078 14.6766 17.8078L17.8095 14.6749L17.8125 14.6719L20.7898 17.6492C20.8952 17.7546 21.0383 17.8139 21.1875 17.8139C21.3367 17.8139 21.4798 17.7546 21.5852 17.6492C21.6907 17.5437 21.75 17.4006 21.75 17.2514C21.75 17.1022 21.6907 16.9591 21.5852 16.8537L18.6141 13.8825C18.4555 13.7215 18.247 13.6342 18.247 13.6342C18.0385 13.5469 17.8125 13.5469 17.8125 13.5469C17.5865 13.5469 17.378 13.6342 17.378 13.6342C17.1695 13.7215 17.014 13.8794 17.014 13.8794L13.875 17.0184L13.872 17.0154L12.4266 15.57C12.268 15.409 12.0595 15.3217 12.0595 15.3217C11.851 15.2344 11.625 15.2344 11.625 15.2344C11.399 15.2344 11.1905 15.3217 11.1905 15.3217C10.982 15.409 10.8265 15.5669 10.8265 15.5669L8.41496 17.9784Z" fill="#0B2866"/>
<path d="M13.875 12.4688C13.875 12.9347 13.4972 13.3125 13.0312 13.3125C12.5653 13.3125 12.1875 12.9347 12.1875 12.4688C12.1875 12.0028 12.5653 11.625 13.0312 11.625C13.4972 11.625 13.875 12.0028 13.875 12.4688Z" fill="#0B2866"/>
</svg>
