<svg width="31" height="30" viewBox="0 0 31 30" fill="none" xmlns="http://www.w3.org/2000/svg">
<rect x="0.5" width="30" height="30" rx="5" fill="#D7E3FC"/>
<path d="M17.4609 9.09375C17.4609 10.1811 16.5796 11.0625 15.4922 11.0625C14.4048 11.0625 13.5234 10.1811 13.5234 9.09375C13.5234 8.00638 14.4048 7.125 15.4922 7.125C16.5796 7.125 17.4609 8.00638 17.4609 9.09375Z" fill="#AFC6F8"/>
<path d="M17.322 15.471L19.7688 17.3695C19.9305 17.5042 20.1368 17.5735 20.3471 17.5639C20.5573 17.5543 20.7564 17.4664 20.9053 17.3177C21.054 17.1688 21.1419 16.9697 21.1515 16.7595C21.1611 16.5492 21.0918 16.3431 20.9571 16.1813L18.1727 12.6024C18.043 12.4712 17.8886 12.3671 17.7184 12.296C17.5483 12.2247 17.3658 12.1879 17.1814 12.1875H13.8064C13.432 12.1896 13.0734 12.3384 12.8078 12.6024L10.0235 16.1813C9.8786 16.3421 9.80101 16.5526 9.80692 16.7692C9.81296 16.9858 9.90195 17.1916 10.0555 17.3443C10.2092 17.4971 10.4156 17.5848 10.6321 17.5896C10.8487 17.5943 11.0588 17.5155 11.2188 17.3695L13.6657 15.471L11.711 21.6305C11.6639 21.731 11.6371 21.8401 11.6322 21.9511C11.6271 22.062 11.6441 22.173 11.6819 22.2775C11.7198 22.3819 11.7779 22.4778 11.8528 22.56C11.9278 22.642 12.0182 22.7084 12.1189 22.7555C12.2195 22.8026 12.3284 22.8294 12.4394 22.8344C12.5505 22.8393 12.6613 22.8224 12.7658 22.7845C12.8703 22.7467 12.9662 22.6886 13.0483 22.6137C13.1303 22.5387 13.1967 22.4483 13.2439 22.3477L15.4939 18.8039L17.7439 22.3477C17.7878 22.4527 17.8525 22.5477 17.9342 22.6271C18.0159 22.7065 18.1127 22.7684 18.219 22.8094C18.3253 22.8503 18.4387 22.8692 18.5524 22.8651C18.6663 22.8611 18.7781 22.8341 18.8811 22.7856C18.9842 22.7371 19.0764 22.6683 19.1522 22.5833C19.2278 22.4983 19.2856 22.3989 19.3219 22.2909C19.3582 22.183 19.3723 22.0689 19.3632 21.9553C19.3543 21.8419 19.3224 21.7313 19.2696 21.6305L17.322 15.471Z" fill="#AFC6F8"/>
<path fill-rule="evenodd" clip-rule="evenodd" d="M15.4922 6.5625C15.4922 6.5625 16.5407 6.5625 17.2821 7.30389C17.2821 7.30389 18.0234 8.04527 18.0234 9.09375C18.0234 9.09375 18.0234 10.1422 17.2821 10.8836C17.2821 10.8836 16.5407 11.625 15.4922 11.625C15.4922 11.625 14.4437 11.625 13.7023 10.8836C13.7023 10.8836 12.9609 10.1422 12.9609 9.09375C12.9609 9.09375 12.9609 8.04527 13.7023 7.30389C13.7023 7.30389 14.4437 6.5625 15.4922 6.5625ZM15.4922 7.6875C15.4922 7.6875 14.9097 7.6875 14.4978 8.09938C14.4978 8.09938 14.0859 8.51126 14.0859 9.09375C14.0859 9.09375 14.0859 9.67624 14.4978 10.0881C14.4978 10.0881 14.9097 10.5 15.4922 10.5C15.4922 10.5 16.0747 10.5 16.4866 10.0881C16.4866 10.0881 16.8984 9.67624 16.8984 9.09375C16.8984 9.09375 16.8984 8.51126 16.4866 8.09938C16.4866 8.09938 16.0747 7.6875 15.4922 7.6875Z" fill="#0B2866"/>
<path fill-rule="evenodd" clip-rule="evenodd" d="M18.4016 17.021L19.7923 21.4193C19.7923 21.4193 19.9031 21.6521 19.9236 21.9109C19.9236 21.9109 19.9463 22.1977 19.8546 22.4703C19.8546 22.4703 19.7629 22.7429 19.5716 22.9576C19.5716 22.9576 19.3802 23.1723 19.12 23.2946C19.12 23.2946 18.8597 23.417 18.5722 23.4273C18.5722 23.4273 18.2848 23.4376 18.0164 23.3343C18.0164 23.3343 17.748 23.231 17.5418 23.0305C17.5418 23.0305 17.3548 22.8488 17.246 22.6138L15.4934 19.8533L13.7352 22.6224C13.7352 22.6224 13.6192 22.8535 13.4273 23.0289C13.4273 23.0289 13.2205 23.2179 12.957 23.3134C12.957 23.3134 12.6936 23.4089 12.4137 23.3963C12.4137 23.3963 12.1338 23.3837 11.88 23.265C11.88 23.265 11.6262 23.1462 11.4372 22.9394C11.4372 22.9394 11.2481 22.7326 11.1527 22.4691C11.1527 22.4691 11.0572 22.2057 11.0698 21.9258C11.0698 21.9258 11.0814 21.6665 11.1842 21.4296L12.5826 17.023L11.579 17.8017C11.579 17.8017 11.1694 18.1638 10.6195 18.1519C10.6195 18.1519 10.0573 18.1398 9.65852 17.7433C9.65852 17.7433 9.25971 17.3468 9.24423 16.7847C9.24423 16.7847 9.22907 16.2338 9.59025 15.8215L12.3635 12.2569C12.3782 12.2381 12.394 12.2202 12.411 12.2033C12.411 12.2033 12.9886 11.6294 13.8059 11.625H17.1821C17.1821 11.625 17.5738 11.6258 17.9351 11.777C17.9351 11.777 18.2965 11.9282 18.572 12.2066C18.5878 12.2225 18.6025 12.2393 18.6163 12.2569L21.3955 15.8293C21.3955 15.8293 21.7376 16.2456 21.713 16.7852C21.713 16.7852 21.6881 17.3299 21.3025 17.7154C21.3025 17.7154 20.917 18.101 20.3723 18.1258C20.3723 18.1258 19.8329 18.1504 19.4168 17.8087L18.4016 17.021ZM18.7328 21.8001L16.7852 15.6407C16.7402 15.4984 16.7536 15.3442 16.8224 15.2118C16.8911 15.0794 17.0097 14.9797 17.1519 14.9348C17.3281 14.8791 17.5203 14.9134 17.6663 15.0267L20.1132 16.9251C20.1183 16.9291 20.1233 16.9331 20.1282 16.9372C20.1282 16.9372 20.2121 17.007 20.321 17.002C20.321 17.002 20.4299 16.997 20.507 16.9199C20.507 16.9199 20.5842 16.8428 20.5891 16.7339C20.5891 16.7339 20.5941 16.6249 20.5243 16.5411C20.5204 16.5364 20.5165 16.5315 20.5127 16.5267L17.7515 12.9775C17.7515 12.9775 17.6414 12.8736 17.5009 12.8148C17.5009 12.8148 17.3468 12.7504 17.1797 12.75L13.8059 12.75C13.8059 12.75 13.4709 12.7518 13.2269 12.9792L10.467 16.5267C10.4587 16.5373 10.45 16.5477 10.441 16.5577C10.441 16.5577 10.3657 16.6413 10.3688 16.7537C10.3688 16.7537 10.3719 16.8662 10.4517 16.9455C10.4517 16.9455 10.5314 17.0247 10.6439 17.0272C10.6439 17.0272 10.7563 17.0296 10.8394 16.9538C10.8504 16.9438 10.8618 16.9342 10.8736 16.9251L13.3204 15.0267C13.5659 14.8362 13.9192 14.8808 14.1097 15.1263C14.2231 15.2724 14.2574 15.4649 14.2014 15.6412L12.2467 21.8006C12.2393 21.8239 12.2304 21.8467 12.2201 21.8689C12.2201 21.8689 12.1961 21.92 12.1936 21.9763C12.1936 21.9763 12.1911 22.0327 12.2103 22.0857C12.2103 22.0857 12.2295 22.1388 12.2676 22.1804C12.2676 22.1804 12.3057 22.2221 12.3568 22.246C12.3568 22.246 12.4079 22.2699 12.4642 22.2724C12.4642 22.2724 12.5206 22.275 12.5736 22.2557C12.5736 22.2557 12.6267 22.2365 12.6683 22.1984C12.6683 22.1984 12.71 22.1604 12.7339 22.1093C12.7441 22.0875 12.7556 22.0664 12.7685 22.0462L15.0185 18.5024C15.185 18.2401 15.5326 18.1625 15.7949 18.329C15.8647 18.3734 15.9239 18.4326 15.9683 18.5024L18.2183 22.0462C18.2353 22.073 18.25 22.1012 18.2623 22.1305C18.2623 22.1305 18.2845 22.1836 18.3257 22.2237C18.3257 22.2237 18.367 22.2638 18.4207 22.2844C18.4207 22.2844 18.4744 22.3051 18.5318 22.303C18.5318 22.303 18.5893 22.301 18.6414 22.2765C18.6414 22.2765 18.6934 22.252 18.7317 22.2091C18.7317 22.2091 18.77 22.1662 18.7883 22.1116C18.7883 22.1116 18.8067 22.0571 18.8021 21.9998C18.8021 21.9998 18.7976 21.9424 18.7709 21.8915C18.7555 21.8622 18.7428 21.8316 18.7328 21.8001Z" fill="#0B2866"/>
</svg>
