<svg width="20" height="20" viewBox="0 0 20 20" fill="none" xmlns="http://www.w3.org/2000/svg">
<path fill-rule="evenodd" clip-rule="evenodd" d="M2.5 3.75C2.5 3.75 2.5 3.23223 2.86612 2.86612C2.86612 2.86612 3.23223 2.5 3.75 2.5H16.25C16.25 2.5 16.7678 2.5 17.1339 2.86612C17.1339 2.86612 17.5 3.23223 17.5 3.75V16.25C17.5 16.25 17.5 16.7678 17.1339 17.1339C17.1339 17.1339 16.7678 17.5 16.25 17.5H3.75C3.75 17.5 3.23223 17.5 2.86612 17.1339C2.86612 17.1339 2.5 16.7678 2.5 16.25V3.75ZM3.75 3.75V16.25H16.25V3.75H3.75Z" fill="#8D9CAD"/>
<path d="M2.68329 13.3068L2.68306 13.307C2.56585 13.4242 2.5 13.5832 2.5 13.749C2.5 13.759 2.50024 13.769 2.50072 13.779C2.50819 13.9342 2.57319 14.081 2.68306 14.1909C2.80027 14.3081 2.95924 14.374 3.125 14.374C3.29076 14.374 3.44973 14.3081 3.56694 14.1909L3.56718 14.1907L6.24663 11.5112C6.25 11.5078 6.25 11.5078 6.25 11.5078L7.86275 13.1206C8.03559 13.2961 8.26723 13.3931 8.26723 13.3931C8.49887 13.4901 8.75 13.4901 8.75 13.4901C9.00113 13.4901 9.23277 13.3931 9.23277 13.3931C9.46441 13.2961 9.64062 13.1172 9.64062 13.1172L13.1216 9.63621L13.125 9.63281L16.4331 12.9409C16.5503 13.0581 16.7092 13.124 16.875 13.124C17.0408 13.124 17.1997 13.0581 17.3169 12.9409C17.4342 12.8237 17.5 12.6647 17.5 12.499C17.5 12.3332 17.4342 12.1742 17.3169 12.057L14.0156 8.75572C13.8394 8.57679 13.6078 8.4798 13.6078 8.4798C13.3761 8.38281 13.125 8.38281 13.125 8.38281C12.8739 8.38281 12.6422 8.4798 12.6422 8.4798C12.4106 8.57679 12.2377 8.75233 12.2377 8.75233L8.75 12.2401L8.74663 12.2367L7.14062 10.6307C6.96441 10.4518 6.73277 10.3548 6.73277 10.3548C6.50113 10.2578 6.25 10.2578 6.25 10.2578C5.99887 10.2578 5.76723 10.3548 5.76723 10.3548C5.53559 10.4518 5.36275 10.6273 5.36275 10.6273L2.68329 13.3068Z" fill="#8D9CAD"/>
<path d="M8.75 7.1875C8.75 7.70527 8.33023 8.125 7.8125 8.125C7.29477 8.125 6.875 7.70527 6.875 7.1875C6.875 6.66973 7.29477 6.25 7.8125 6.25C8.33023 6.25 8.75 6.66973 8.75 7.1875Z" fill="#8D9CAD"/>
</svg>
