<svg width="20" height="20" viewBox="0 0 20 20" fill="none" xmlns="http://www.w3.org/2000/svg">
<path d="M10.2524 11.2714C9.73591 11.0569 9.34121 10.6607 9.34121 10.6607C9.22421 10.5432 9.06537 10.4771 8.89961 10.4768L8.89844 10.4768C8.88882 10.4768 8.87919 10.477 8.86958 10.4774C8.71437 10.4846 8.5674 10.5493 8.45732 10.659C8.33961 10.7763 8.27344 10.9356 8.27344 11.1018C8.27344 11.1122 8.2737 11.1226 8.27422 11.1329C8.28192 11.2873 8.34657 11.4334 8.45567 11.5429C9.02629 12.1157 9.77296 12.4258 9.77296 12.4258C10.5196 12.7359 11.3281 12.7359 11.3281 12.7359C12.1366 12.7359 12.8833 12.4258 12.8833 12.4258C13.63 12.1157 14.2006 11.5429 14.2006 11.5429L16.4099 9.34138C16.417 9.33431 16.4239 9.32707 16.4307 9.31967C17.5294 8.11421 17.4916 6.48359 17.4916 6.48359C17.4539 4.85298 16.3006 3.69965 16.3006 3.69965C15.1472 2.54633 13.5166 2.50858 13.5166 2.50858C11.886 2.47083 10.6805 3.56955 10.6805 3.56955C10.6734 3.57604 10.6664 3.5827 10.6596 3.58952L9.11275 5.1364C8.99554 5.25361 8.92969 5.41258 8.92969 5.57834C8.92969 5.58835 8.92993 5.59836 8.93041 5.60836C8.93787 5.76356 9.00288 5.91041 9.11275 6.02028C9.22996 6.13749 9.38893 6.20334 9.55469 6.20334C9.72045 6.20334 9.87942 6.13749 9.99663 6.02028L9.99683 6.02009L11.5328 4.48409C12.3648 3.73225 13.4877 3.75824 13.4877 3.75824C14.6175 3.7844 15.4167 4.58354 15.4167 4.58354C16.2158 5.38268 16.242 6.51252 16.242 6.51252C16.268 7.63519 15.5165 8.467 15.5165 8.467L13.315 10.6607C12.9203 11.0569 12.4039 11.2714 12.4039 11.2714C11.8874 11.4859 11.3281 11.4859 11.3281 11.4859C10.7689 11.4859 10.2524 11.2714 10.2524 11.2714Z" fill="white"/>
<path d="M9.74758 8.72866C10.2641 8.94316 10.6588 9.33935 10.6588 9.33935C10.776 9.45706 10.9354 9.52323 11.1015 9.52323C11.1119 9.52323 11.1223 9.52297 11.1327 9.52246C11.2871 9.51475 11.4331 9.4501 11.5426 9.341C11.6601 9.22401 11.7262 9.06516 11.7265 8.8994L11.7265 8.89823C11.7265 8.88861 11.7263 8.87899 11.7259 8.86938C11.7187 8.71417 11.654 8.56719 11.5443 8.45712C10.9737 7.88436 10.227 7.57426 10.227 7.57426C9.48034 7.26416 8.67185 7.26416 8.67185 7.26416C7.86335 7.26416 7.11668 7.57426 7.11668 7.57426C6.37002 7.88436 5.79939 8.45712 5.79939 8.45712L3.59006 10.6586C3.58297 10.6657 3.57605 10.6729 3.5693 10.6803C2.47058 11.8858 2.50833 13.5164 2.50833 13.5164C2.54608 15.147 3.69941 16.3004 3.69941 16.3004C4.85274 17.4537 6.48335 17.4914 6.48335 17.4914C8.11396 17.5292 9.31943 16.4305 9.31943 16.4305C9.32655 16.424 9.33353 16.4173 9.34035 16.4105L10.8869 14.8639L10.8872 14.8636C11.0044 14.7464 11.0703 14.5874 11.0703 14.4217C11.0703 14.2559 11.0044 14.0969 10.8872 13.9797C10.77 13.8625 10.611 13.7967 10.4453 13.7967C10.2795 13.7967 10.1206 13.8625 10.0033 13.9797L10.003 13.9801L8.46715 15.5159C7.63521 16.2678 6.51228 16.2418 6.51228 16.2418C5.38243 16.2156 4.58329 15.4165 4.58329 15.4165C3.78416 14.6173 3.758 13.4875 3.758 13.4875C3.73201 12.3648 4.48348 11.533 4.48348 11.533L6.68493 9.33935C7.07964 8.94316 7.59611 8.72866 7.59611 8.72866C8.1126 8.51416 8.67185 8.51416 8.67185 8.51416C9.2311 8.51416 9.74758 8.72866 9.74758 8.72866Z" fill="white"/>
</svg>
