<svg width="676" height="710" viewBox="0 0 676 710" fill="none" xmlns="http://www.w3.org/2000/svg">
<g clip-path="url(#clip0_721_92228)">
<path d="M710 0H0V710H710V0Z" fill="#AFC6F8"/>
<path d="M205.46 497.838H504.54C536.826 467.802 559.319 428.739 569.09 385.738C578.86 342.737 575.454 297.79 559.317 256.752C543.18 215.713 515.058 180.486 478.615 155.657C442.172 130.828 399.097 117.549 355 117.549C310.903 117.549 267.828 130.828 231.385 155.657C194.942 180.486 166.82 215.713 150.683 256.752C134.545 297.79 131.14 342.737 140.91 385.738C150.681 428.739 173.174 467.802 205.46 497.838Z" fill="#D7E3FC" fill-opacity="0.3"/>
<path d="M550.42 497.483H159.58C155.384 497.483 151.361 495.816 148.394 492.85C145.427 489.883 143.761 485.859 143.761 481.664H566.239C566.239 485.859 564.573 489.883 561.606 492.85C558.639 495.816 554.616 497.483 550.42 497.483Z" fill="#88AAF5"/>
<path d="M193.432 252.235H516.568C518.721 252.235 520.854 252.659 522.844 253.483C524.834 254.307 526.642 255.515 528.165 257.038C529.688 258.561 530.896 260.369 531.72 262.359C532.544 264.349 532.969 266.482 532.969 268.636V481.636H177.017V268.636C177.017 266.481 177.442 264.347 178.267 262.356C179.092 260.365 180.301 258.556 181.826 257.033C183.35 255.51 185.16 254.302 187.152 253.479C189.143 252.656 191.277 252.233 193.432 252.235Z" fill="#88AAF5"/>
<path d="M196.954 261.99H513.046C515.934 261.99 518.705 263.137 520.747 265.18C522.79 267.223 523.937 269.993 523.937 272.881V481.621H186.02V272.881C186.02 271.447 186.303 270.028 186.853 268.704C187.403 267.379 188.209 266.177 189.225 265.165C190.241 264.153 191.447 263.352 192.773 262.807C194.099 262.262 195.52 261.984 196.954 261.99Z" fill="#C6D8FF"/>
<path d="M513.046 261.99H196.954C194.064 261.994 191.294 263.144 189.252 265.189C187.21 267.234 186.063 270.006 186.063 272.896V481.636C284.568 302.332 523.98 329.014 523.98 329.014V272.896C523.98 271.461 523.697 270.041 523.147 268.716C522.597 267.391 521.791 266.187 520.776 265.174C519.76 264.161 518.555 263.358 517.228 262.812C515.902 262.266 514.48 261.986 513.046 261.99Z" fill="#D7E3FC"/>
<path d="M501.26 281.756C501.257 282.485 501.471 283.198 501.874 283.805C502.277 284.412 502.851 284.886 503.524 285.166C504.196 285.446 504.937 285.52 505.652 285.378C506.367 285.237 507.023 284.886 507.538 284.371C508.054 283.856 508.404 283.199 508.546 282.485C508.687 281.77 508.613 281.029 508.333 280.357C508.053 279.684 507.579 279.11 506.972 278.707C506.365 278.304 505.652 278.09 504.924 278.093C503.952 278.093 503.02 278.479 502.333 279.166C501.646 279.853 501.26 280.785 501.26 281.756Z" fill="#1650CF"/>
<path d="M491.789 281.756C491.786 282.484 491.999 283.197 492.402 283.804C492.804 284.41 493.377 284.884 494.049 285.164C494.721 285.445 495.461 285.52 496.175 285.379C496.89 285.239 497.546 284.89 498.062 284.376C498.578 283.862 498.929 283.207 499.073 282.493C499.216 281.78 499.144 281.039 498.866 280.366C498.588 279.694 498.116 279.118 497.511 278.714C496.906 278.309 496.194 278.093 495.466 278.093C494.984 278.091 494.506 278.184 494.06 278.368C493.614 278.551 493.208 278.82 492.867 279.161C492.525 279.501 492.254 279.906 492.069 280.351C491.884 280.797 491.789 281.274 491.789 281.756Z" fill="#1650CF"/>
<path d="M485.995 285.42C488.018 285.42 489.659 283.78 489.659 281.756C489.659 279.733 488.018 278.093 485.995 278.093C483.972 278.093 482.331 279.733 482.331 281.756C482.331 283.78 483.972 285.42 485.995 285.42Z" fill="#1650CF"/>
<path d="M507.267 447.3H464.667C464.553 447.3 464.468 447.144 464.468 446.945C464.468 446.746 464.553 446.59 464.667 446.59H507.267C507.38 446.59 507.465 446.746 507.465 446.945C507.465 447.144 507.38 447.3 507.267 447.3Z" fill="white"/>
<path d="M507.267 453.321H464.667C464.553 453.321 464.468 453.165 464.468 452.966C464.468 452.767 464.553 452.611 464.667 452.611H507.267C507.38 452.611 507.465 452.767 507.465 452.966C507.465 453.165 507.38 453.321 507.267 453.321Z" fill="white"/>
<path d="M507.267 459.342H464.667C464.553 459.342 464.468 459.185 464.468 458.987C464.468 458.788 464.553 458.632 464.667 458.632H507.267C507.38 458.632 507.465 458.788 507.465 458.987C507.465 459.185 507.38 459.342 507.267 459.342Z" fill="white"/>
<path d="M507.267 465.362H464.667C464.553 465.362 464.468 465.206 464.468 465.007C464.468 464.809 464.553 464.652 464.667 464.652H507.267C507.38 464.652 507.465 464.809 507.465 465.007C507.465 465.206 507.38 465.362 507.267 465.362Z" fill="white"/>
<path d="M507.267 383.059H464.667C464.553 383.059 464.468 382.903 464.468 382.704C464.468 382.505 464.553 382.349 464.667 382.349H507.267C507.38 382.349 507.465 382.505 507.465 382.704C507.465 382.903 507.38 383.059 507.267 383.059Z" fill="white"/>
<path d="M507.267 389.08H464.667C464.553 389.08 464.468 388.924 464.468 388.725C464.468 388.526 464.553 388.37 464.667 388.37H507.267C507.38 388.37 507.465 388.526 507.465 388.725C507.465 388.924 507.38 389.08 507.267 389.08Z" fill="white"/>
<path d="M507.267 395.101H464.667C464.553 395.101 464.468 394.945 464.468 394.746C464.468 394.547 464.553 394.391 464.667 394.391H507.267C507.38 394.391 507.465 394.547 507.465 394.746C507.465 394.945 507.38 395.101 507.267 395.101Z" fill="white"/>
<path d="M507.267 401.122H464.667C464.553 401.122 464.468 400.965 464.468 400.767C464.468 400.568 464.553 400.412 464.667 400.412H507.267C507.38 400.412 507.465 400.568 507.465 400.767C507.465 400.965 507.38 401.122 507.267 401.122Z" fill="white"/>
<path d="M144.343 485.881C145.265 489.215 147.254 492.154 150.006 494.25C152.758 496.345 156.121 497.481 159.58 497.483H550.42C553.879 497.481 557.242 496.345 559.994 494.25C562.746 492.154 564.735 489.215 565.657 485.881H144.343Z" fill="#608DF1"/>
<path d="M583.975 497.838H126.025C125.931 497.838 125.841 497.8 125.774 497.734C125.707 497.667 125.67 497.577 125.67 497.483C125.67 497.389 125.707 497.298 125.774 497.232C125.841 497.165 125.931 497.128 126.025 497.128H583.975C584.069 497.128 584.159 497.165 584.226 497.232C584.293 497.298 584.33 497.389 584.33 497.483C584.33 497.577 584.293 497.667 584.226 497.734C584.159 497.8 584.069 497.838 583.975 497.838Z" fill="white"/>
<path d="M491.121 592.41H417.281C417.187 592.41 417.097 592.372 417.03 592.306C416.964 592.239 416.926 592.149 416.926 592.055C416.926 591.961 416.964 591.87 417.03 591.804C417.097 591.737 417.187 591.7 417.281 591.7H491.121C491.215 591.7 491.306 591.737 491.372 591.804C491.439 591.87 491.476 591.961 491.476 592.055C491.476 592.149 491.439 592.239 491.372 592.306C491.306 592.372 491.215 592.41 491.121 592.41Z" fill="white"/>
<path d="M406.418 569.306H332.578C332.484 569.306 332.394 569.269 332.327 569.202C332.261 569.136 332.223 569.046 332.223 568.951C332.223 568.857 332.261 568.767 332.327 568.7C332.394 568.634 332.484 568.596 332.578 568.596H406.418C406.512 568.596 406.603 568.634 406.669 568.7C406.736 568.767 406.773 568.857 406.773 568.951C406.773 569.046 406.736 569.136 406.669 569.202C406.603 569.269 406.512 569.306 406.418 569.306Z" fill="white"/>
<path d="M398.835 381.043H305.3C302.753 381.035 300.312 380.02 298.511 378.219C296.709 376.418 295.694 373.977 295.687 371.429C295.698 368.885 296.715 366.447 298.516 364.649C300.316 362.851 302.755 361.838 305.3 361.83H398.807C401.353 361.834 403.794 362.846 405.596 364.645C407.397 366.444 408.413 368.883 408.42 371.429C408.417 373.973 407.407 376.412 405.611 378.213C403.815 380.014 401.379 381.032 398.835 381.043Z" fill="white"/>
<path d="M368.476 363.818H305.655C303.637 363.822 301.704 364.625 300.277 366.052C298.851 367.478 298.047 369.412 298.044 371.429C298.047 373.448 298.85 375.383 300.276 376.812C301.702 378.241 303.636 379.047 305.655 379.055H363.875L368.476 363.818Z" fill="#5884E6"/>
<path d="M379.751 334.438L416.216 358.081L440.683 345.387C440.683 345.387 432.291 360.282 431.879 360.566C431.467 360.85 415.52 367.027 415.52 367.027L398.75 355.753L379.751 334.438Z" fill="#EBF1FD"/>
<path d="M424.21 303.138L364.055 283.65C361.004 282.662 357.729 284.334 356.74 287.385L337.253 347.54C336.264 350.592 337.937 353.867 340.988 354.855L401.143 374.343C404.194 375.331 407.469 373.659 408.458 370.607L427.945 310.453C428.934 307.401 427.262 304.126 424.21 303.138Z" fill="#88AAF5"/>
<path d="M340.956 354.858L401.107 374.355C401.834 374.589 402.599 374.678 403.36 374.617C404.121 374.555 404.862 374.344 405.541 373.996C406.22 373.648 406.824 373.169 407.318 372.587C407.812 372.006 408.187 371.332 408.42 370.606L414.285 352.529L399.886 331.229L386.368 336.171L374.88 314.899L343.938 326.969L337.264 347.545C336.788 349.004 336.909 350.593 337.601 351.963C338.293 353.334 339.499 354.374 340.956 354.858Z" fill="#1442A7"/>
<g style="mix-blend-mode:multiply">
<path d="M422.393 302.574L419.795 300.046L389.875 302.971L362.1 336.142L340.559 351.862L343.541 355.71L349.462 357.627L403.592 368.987C404.34 369.145 405.112 369.154 405.863 369.013C406.614 368.872 407.331 368.584 407.97 368.166C408.61 367.748 409.161 367.208 409.592 366.576C410.022 365.944 410.324 365.234 410.479 364.486L423.259 302.943L422.393 302.574Z" fill="#1442A7"/>
</g>
<path d="M397.983 315.24C397.69 316.133 397.139 316.92 396.4 317.501C395.66 318.081 394.765 318.429 393.828 318.501C392.89 318.574 391.952 318.366 391.133 317.906C390.313 317.445 389.648 316.752 389.222 315.914C388.796 315.076 388.628 314.13 388.739 313.196C388.85 312.263 389.236 311.383 389.846 310.668C390.457 309.953 391.266 309.436 392.171 309.18C393.076 308.925 394.036 308.943 394.93 309.233C395.526 309.427 396.077 309.735 396.553 310.142C397.029 310.548 397.42 311.045 397.704 311.603C397.987 312.161 398.158 312.77 398.206 313.394C398.254 314.018 398.178 314.645 397.983 315.24Z" fill="#7A1313"/>
<path d="M418.085 294.812L356.187 281.892C353.047 281.237 349.97 283.251 349.315 286.391L336.395 348.289C335.739 351.429 337.753 354.506 340.893 355.161L402.792 368.081C405.932 368.737 409.008 366.722 409.664 363.583L422.584 301.684C423.239 298.544 421.225 295.467 418.085 294.812Z" fill="#88AAF5"/>
<path d="M340.899 355.142L402.797 368.064C403.547 368.219 404.32 368.225 405.072 368.08C405.824 367.936 406.54 367.644 407.179 367.222C407.818 366.799 408.367 366.255 408.794 365.62C409.222 364.984 409.519 364.271 409.67 363.52L413.561 344.918L396.947 325.237L384.039 331.598L370.293 311.718L340.8 327.111L336.384 348.269C336.228 349.017 336.221 349.788 336.364 350.539C336.507 351.289 336.796 352.004 337.216 352.642C337.635 353.281 338.176 353.83 338.809 354.259C339.441 354.688 340.151 354.988 340.899 355.142Z" fill="#1650CF"/>
<path d="M393.34 309.645C393.141 310.566 392.673 311.407 391.997 312.063C391.32 312.718 390.465 313.159 389.539 313.329C388.612 313.499 387.656 313.391 386.791 313.019C385.925 312.647 385.19 312.027 384.676 311.237C384.163 310.447 383.895 309.523 383.906 308.581C383.917 307.639 384.206 306.721 384.738 305.944C385.27 305.166 386.02 304.563 386.893 304.211C387.767 303.859 388.726 303.773 389.648 303.965C390.264 304.095 390.848 304.345 391.366 304.701C391.885 305.057 392.329 305.512 392.672 306.039C393.015 306.567 393.25 307.157 393.365 307.776C393.48 308.394 393.471 309.03 393.34 309.645Z" fill="#1650CF"/>
<path d="M466.896 416.742L455.11 470.787L474.493 549.98L464.794 553.289L430.544 476.893L448.095 426.454L466.896 416.742Z" fill="#071D4A"/>
<path d="M438.482 454.088L430.544 476.893L464.794 553.289L442.6 462.508L438.482 454.088Z" fill="#0B2866"/>
<path d="M450.225 330.505L449.501 328.602C449.311 328.107 449.24 327.575 449.293 327.048C449.346 326.52 449.521 326.013 449.806 325.566C450.09 325.118 450.475 324.744 450.93 324.472C451.385 324.201 451.898 324.039 452.426 324.001C454.706 323.698 457.025 323.907 459.214 324.612C460.712 325.119 462 326.107 462.878 327.422C463.756 328.736 464.176 330.305 464.07 331.882C464.212 334.623 459.697 337.662 463.559 343.129L458.092 344.975L452.597 336.611L450.225 330.505Z" fill="#071D4A"/>
<path d="M449.26 339.82L446.704 335.56L451.347 328.915L456.686 336.015L458.575 334.524C458.575 334.524 460.662 336.441 457.254 338.514L458.092 345.003L451.347 343.924L452.199 339.962L449.26 339.82Z" fill="#EDAC80"/>
<path d="M428.471 415.961C427.876 418.279 427.117 420.552 426.199 422.762C415.407 448.635 367.425 561.78 367.425 561.78H377.606C400.326 529.518 448.535 455.053 461.386 430.629C463.933 426.316 465.787 421.63 466.882 416.742C466.882 416.742 437.829 423.387 428.471 415.961Z" fill="#0B2866"/>
<path d="M468.387 358.422C467.91 355.443 466.712 352.625 464.898 350.213C463.085 347.802 460.709 345.87 457.979 344.585C455.249 343.3 452.246 342.702 449.231 342.842C446.217 342.981 443.283 343.855 440.683 345.387L415.322 361.731L378.316 333.331C377.937 332.992 377.44 332.814 376.931 332.836C376.423 332.857 375.942 333.075 375.592 333.444C375.241 333.813 375.048 334.304 375.053 334.813C375.058 335.322 375.261 335.809 375.618 336.171L414.441 379.566L436.409 369.385C436.409 378.458 431.14 403.777 428.897 414.171C428.769 414.782 428.613 415.378 428.457 415.989C437.814 423.416 466.882 416.77 466.882 416.77C471.312 391.395 470.56 372.04 468.387 358.422Z" fill="white"/>
<path d="M466.896 416.742C466.896 416.742 461.33 418.005 454.286 418.815L377.606 561.78C400.326 529.518 448.535 455.053 461.386 430.629C463.938 426.317 465.797 421.63 466.896 416.742Z" fill="#071D4A"/>
<path d="M367.411 561.78L355 565.941C354.704 566.042 354.454 566.245 354.294 566.513C354.133 566.782 354.073 567.098 354.124 567.407C354.175 567.715 354.334 567.995 354.573 568.198C354.811 568.4 355.113 568.511 355.426 568.511H374C374.67 568.506 375.329 568.343 375.924 568.036C376.519 567.728 377.034 567.284 377.425 566.741C377.817 566.197 378.074 565.569 378.177 564.907C378.28 564.245 378.226 563.568 378.018 562.931L377.635 561.78H367.411Z" fill="#EDAC80"/>
<path d="M464.794 553.289L458.419 565.657C458.212 566.059 458.148 566.518 458.235 566.961C458.323 567.404 458.558 567.804 458.901 568.097C459.245 568.389 459.677 568.557 460.128 568.573C460.58 568.589 461.023 568.452 461.386 568.185L475.586 557.62C476.04 557.32 476.424 556.926 476.711 556.465C476.998 556.003 477.183 555.485 477.251 554.946C477.32 554.407 477.272 553.859 477.109 553.34C476.947 552.821 476.675 552.344 476.311 551.94L474.536 550.023L464.794 553.289Z" fill="#EDAC80"/>
<path d="M447.669 364.003L436.409 369.356C436.409 378.43 431.14 403.749 428.897 414.143C428.769 414.754 428.613 415.35 428.457 415.961C433.725 420.135 445.213 419.866 454.272 418.801C442.884 395.853 447.669 364.003 447.669 364.003Z" fill="#D9E4FC" fill-opacity="0.3"/>
<path d="M467.365 324.626C467.365 325.432 467.126 326.22 466.678 326.89C466.23 327.561 465.594 328.083 464.849 328.391C464.104 328.7 463.285 328.781 462.494 328.623C461.704 328.466 460.977 328.078 460.407 327.508C459.838 326.938 459.449 326.212 459.292 325.421C459.135 324.631 459.216 323.811 459.524 323.067C459.833 322.322 460.355 321.685 461.025 321.238C461.695 320.79 462.483 320.551 463.289 320.551C464.369 320.555 465.403 320.985 466.167 321.749C466.93 322.512 467.361 323.546 467.365 324.626Z" fill="#071D4A"/>
<path d="M383.585 337.378L378.316 333.345C377.937 333.006 377.44 332.829 376.931 332.85C376.423 332.871 375.942 333.089 375.592 333.458C375.241 333.827 375.048 334.318 375.053 334.827C375.058 335.336 375.261 335.823 375.618 336.185L381.824 343.115L383.585 337.378Z" fill="#EDAC80"/>
<g style="mix-blend-mode:multiply">
<path d="M375.618 336.142L406.262 373.559C406.262 373.559 407.597 372.494 407.682 372.04L375.618 336.142Z" fill="#0B2866"/>
</g>
<path d="M311.804 310.242C311.316 310.244 310.833 310.15 310.382 309.965C309.931 309.779 309.522 309.507 309.177 309.162L303.099 303.071C302.47 302.363 302.136 301.443 302.165 300.497C302.193 299.551 302.582 298.652 303.252 297.984C303.922 297.316 304.822 296.93 305.768 296.904C306.713 296.878 307.633 297.215 308.339 297.845L311.804 301.31L318.35 294.749C319.045 294.055 319.987 293.665 320.97 293.665C321.952 293.665 322.895 294.055 323.59 294.749C324.281 295.446 324.668 296.388 324.668 297.369C324.668 298.351 324.281 299.292 323.59 299.989L314.416 309.162C314.073 309.505 313.666 309.777 313.217 309.962C312.769 310.147 312.289 310.242 311.804 310.242ZM305.712 297.121C305.055 297.124 304.415 297.322 303.87 297.688C303.325 298.054 302.9 298.572 302.649 299.179C302.397 299.785 302.33 300.452 302.455 301.096C302.581 301.74 302.894 302.333 303.355 302.801L309.446 308.893C310.074 309.513 310.921 309.862 311.804 309.862C312.686 309.862 313.533 309.513 314.161 308.893L323.334 299.705C323.951 299.076 324.297 298.23 324.297 297.348C324.297 296.466 323.951 295.62 323.334 294.991C322.707 294.37 321.859 294.022 320.977 294.022C320.094 294.022 319.247 294.37 318.62 294.991L311.804 301.807L308.14 298.101C307.823 297.781 307.444 297.53 307.026 297.361C306.609 297.193 306.162 297.111 305.712 297.121Z" fill="#1442A7"/>
<path d="M313.351 319.997C309.782 319.997 306.292 318.939 303.324 316.955C300.356 314.972 298.043 312.153 296.677 308.856C295.311 305.558 294.954 301.929 295.65 298.428C296.346 294.927 298.065 291.711 300.589 289.187C303.114 286.663 306.329 284.944 309.83 284.247C313.331 283.551 316.96 283.908 320.258 285.274C323.556 286.641 326.375 288.954 328.358 291.922C330.341 294.89 331.4 298.379 331.4 301.949C331.396 306.734 329.493 311.323 326.109 314.707C322.725 318.091 318.137 319.993 313.351 319.997ZM313.351 284.27C309.851 284.267 306.428 285.303 303.516 287.246C300.604 289.189 298.334 291.952 296.994 295.186C295.653 298.419 295.301 301.978 295.983 305.411C296.666 308.845 298.351 311.999 300.826 314.474C303.302 316.949 306.455 318.635 309.889 319.317C313.322 319.999 316.881 319.648 320.115 318.307C323.348 316.966 326.111 314.696 328.055 311.784C329.998 308.872 331.033 305.449 331.03 301.949C331.023 297.262 329.158 292.77 325.844 289.456C322.53 286.142 318.038 284.277 313.351 284.27Z" fill="#1442A7"/>
<path d="M408.023 441.62C408.025 438.497 407.411 435.405 406.217 432.519C405.024 429.633 403.273 427.011 401.065 424.802C398.858 422.593 396.237 420.841 393.352 419.646C390.467 418.45 387.375 417.835 384.252 417.835C381.101 417.83 377.982 418.457 375.079 419.681C375.312 418.325 375.431 416.953 375.434 415.577C375.434 412.456 374.819 409.364 373.624 406.48C372.43 403.596 370.679 400.976 368.471 398.769C366.264 396.561 363.644 394.81 360.76 393.616C357.876 392.421 354.785 391.806 351.663 391.806C348.541 391.806 345.45 392.421 342.566 393.616C339.682 394.81 337.062 396.561 334.854 398.769C332.647 400.976 330.896 403.596 329.702 406.48C328.507 409.364 327.892 412.456 327.892 415.577C327.895 416.953 328.014 418.325 328.247 419.681C325.344 418.457 322.224 417.83 319.074 417.835C312.807 417.749 306.761 420.142 302.249 424.492C297.738 428.843 295.127 434.798 294.985 441.064C294.843 447.329 297.18 453.398 301.49 457.948C305.799 462.499 311.731 465.163 317.995 465.362H386.41V465.263C392.31 464.722 397.796 461.998 401.793 457.625C405.791 453.252 408.012 447.545 408.023 441.62Z" fill="white"/>
<path d="M352.16 431.907L344.265 422.436C344.04 422.162 343.757 421.942 343.436 421.791C343.116 421.639 342.766 421.561 342.412 421.561C342.057 421.561 341.707 421.639 341.387 421.791C341.067 421.942 340.784 422.162 340.559 422.436L332.649 431.907C332.359 432.26 332.175 432.689 332.118 433.142C332.061 433.596 332.135 434.056 332.33 434.47C332.525 434.883 332.833 435.233 333.219 435.478C333.605 435.723 334.052 435.854 334.509 435.855H337.136V446.633C337.14 447.27 337.396 447.881 337.848 448.33C338.301 448.78 338.913 449.032 339.55 449.032H345.23C345.867 449.032 346.477 448.78 346.927 448.329C347.377 447.879 347.63 447.269 347.63 446.633V435.855H350.271C350.733 435.865 351.189 435.742 351.583 435.501C351.976 435.259 352.292 434.908 352.491 434.491C352.691 434.074 352.766 433.609 352.707 433.15C352.648 432.692 352.458 432.26 352.16 431.907Z" fill="#1650CF"/>
<path d="M351.223 444.687L359.118 454.159C359.346 454.428 359.63 454.644 359.95 454.792C360.27 454.941 360.618 455.018 360.971 455.018C361.324 455.018 361.672 454.941 361.992 454.792C362.312 454.644 362.596 454.428 362.824 454.159L370.734 444.687C371.028 444.334 371.216 443.905 371.275 443.449C371.334 442.993 371.262 442.53 371.066 442.113C370.871 441.697 370.561 441.345 370.172 441.1C369.784 440.854 369.333 440.724 368.873 440.725H366.246V429.962C366.246 429.322 365.992 428.707 365.539 428.255C365.087 427.802 364.473 427.548 363.832 427.548H358.152C357.512 427.548 356.898 427.802 356.445 428.255C355.993 428.707 355.738 429.322 355.738 429.962V440.725H353.111C352.649 440.718 352.195 440.844 351.802 441.088C351.409 441.332 351.095 441.683 350.896 442.1C350.697 442.518 350.622 442.983 350.68 443.442C350.738 443.9 350.926 444.332 351.223 444.687Z" fill="#1650CF"/>
<path d="M507.48 246.285H410.21C410.186 246.285 410.163 246.28 410.141 246.271C410.119 246.261 410.1 246.247 410.084 246.23C410.068 246.213 410.055 246.192 410.048 246.17C410.04 246.147 410.037 246.124 410.039 246.1C410.039 246.078 410.044 246.056 410.052 246.035C410.061 246.014 410.073 245.996 410.089 245.98C410.105 245.964 410.124 245.951 410.144 245.943C410.165 245.934 410.187 245.93 410.21 245.93H507.48C507.502 245.93 507.524 245.934 507.545 245.943C507.565 245.951 507.584 245.964 507.6 245.98C507.616 245.996 507.628 246.014 507.637 246.035C507.646 246.056 507.65 246.078 507.65 246.1C507.65 246.147 507.633 246.192 507.601 246.226C507.569 246.26 507.526 246.281 507.48 246.285Z" fill="white"/>
<path d="M260.073 348.042H214.434C212.121 348.042 210.245 349.918 210.245 352.231V397.87C210.245 400.183 212.121 402.059 214.434 402.059H260.073C262.387 402.059 264.262 400.183 264.262 397.87V352.231C264.262 349.918 262.387 348.042 260.073 348.042Z" fill="#88AAF5"/>
<path d="M247.889 372.665L233.604 362.398C233.166 362.081 232.649 361.89 232.11 361.849C231.57 361.808 231.03 361.917 230.549 362.164C230.068 362.411 229.665 362.787 229.384 363.249C229.104 363.712 228.957 364.243 228.961 364.784V385.317C228.957 385.858 229.104 386.389 229.384 386.852C229.665 387.314 230.068 387.69 230.549 387.937C231.03 388.184 231.57 388.293 232.11 388.252C232.649 388.211 233.166 388.02 233.604 387.703L247.889 377.436C248.265 377.162 248.57 376.803 248.781 376.388C248.992 375.974 249.102 375.515 249.102 375.05C249.102 374.585 248.992 374.127 248.781 373.713C248.57 373.298 248.265 372.939 247.889 372.665Z" fill="#1650CF"/>
<path d="M260.059 466.342H214.42C213.315 466.324 212.26 465.877 211.478 465.095C210.696 464.313 210.249 463.258 210.231 462.153V416.529C210.231 415.399 210.68 414.315 211.479 413.516C212.278 412.717 213.361 412.269 214.491 412.269H250.999L264.305 425.574V462.082C264.305 463.21 263.858 464.291 263.062 465.089C262.266 465.888 261.186 466.338 260.059 466.342Z" fill="#88AAF5"/>
<path d="M250.971 425.631H264.29L250.971 412.325V425.631Z" fill="#1650CF"/>
<path d="M247.08 432.83H227.399C227.094 432.83 226.801 432.709 226.586 432.493C226.37 432.278 226.249 431.985 226.249 431.68C226.249 431.375 226.37 431.082 226.586 430.867C226.801 430.651 227.094 430.53 227.399 430.53H247.08C247.385 430.53 247.678 430.651 247.893 430.867C248.109 431.082 248.23 431.375 248.23 431.68C248.23 431.985 248.109 432.278 247.893 432.493C247.678 432.709 247.385 432.83 247.08 432.83Z" fill="#1650CF"/>
<path d="M247.08 440.47H227.399C227.092 440.466 226.8 440.342 226.585 440.124C226.369 439.906 226.249 439.612 226.249 439.305C226.252 439.002 226.375 438.711 226.59 438.496C226.804 438.281 227.095 438.159 227.399 438.155H247.08C247.385 438.155 247.678 438.276 247.893 438.492C248.109 438.708 248.23 439 248.23 439.305C248.23 439.612 248.11 439.906 247.894 440.124C247.679 440.342 247.386 440.466 247.08 440.47Z" fill="#1650CF"/>
<path d="M247.08 448.095H227.399C227.248 448.095 227.098 448.066 226.959 448.008C226.819 447.95 226.692 447.865 226.586 447.758C226.479 447.652 226.394 447.525 226.336 447.385C226.278 447.246 226.249 447.096 226.249 446.945C226.249 446.64 226.37 446.347 226.586 446.132C226.801 445.916 227.094 445.795 227.399 445.795H247.08C247.385 445.795 247.678 445.916 247.893 446.132C248.109 446.347 248.23 446.64 248.23 446.945C248.23 447.096 248.2 447.246 248.143 447.385C248.085 447.525 248 447.652 247.893 447.758C247.787 447.865 247.66 447.95 247.52 448.008C247.381 448.066 247.231 448.095 247.08 448.095Z" fill="#1650CF"/>
<path d="M260.073 284.895H214.434C212.121 284.895 210.245 286.77 210.245 289.084V334.722C210.245 337.036 212.121 338.911 214.434 338.911H260.073C262.387 338.911 264.262 337.036 264.262 334.722V289.084C264.262 286.77 262.387 284.895 260.073 284.895Z" fill="#88AAF5"/>
<path d="M214.42 338.897H260.059C261.189 338.897 262.272 338.448 263.071 337.649C263.87 336.851 264.319 335.767 264.319 334.637V320.92L249.636 309.56L241.4 315.95L228.819 303.88L210.245 319.046V334.666C210.252 335.776 210.693 336.84 211.473 337.63C212.252 338.42 213.31 338.875 214.42 338.897Z" fill="#1650CF"/>
<path d="M244.794 299.038C244.794 299.717 244.592 300.382 244.215 300.947C243.837 301.512 243.3 301.952 242.672 302.213C242.045 302.473 241.354 302.541 240.687 302.408C240.02 302.275 239.408 301.948 238.928 301.468C238.447 300.987 238.12 300.375 237.987 299.708C237.854 299.042 237.922 298.351 238.183 297.723C238.443 297.095 238.883 296.558 239.448 296.18C240.013 295.803 240.678 295.601 241.357 295.601C242.269 295.601 243.143 295.963 243.787 296.608C244.432 297.252 244.794 298.126 244.794 299.038Z" fill="#1650CF"/>
</g>
<defs>
<clipPath id="clip0_721_92228">
<rect width="710" height="710" fill="white"/>
</clipPath>
</defs>
</svg>
