<svg width="20" height="20" viewBox="0 0 20 20" fill="none" xmlns="http://www.w3.org/2000/svg">
<path d="M15.6064 12.6514L15.6065 12.651C15.6188 12.6016 15.625 12.5509 15.625 12.5C15.625 12.4897 15.6248 12.4795 15.6243 12.4692C15.6192 12.3663 15.5888 12.2663 15.5357 12.178C15.4503 12.0359 15.3119 11.9336 15.1511 11.8935C15.1017 11.8812 15.0509 11.875 15 11.875C14.9928 11.875 14.9856 11.8751 14.9784 11.8754C14.6996 11.885 14.461 12.0783 14.3936 12.349L14.3935 12.3493L13.3627 16.488L12.5019 15.9167C12.5007 15.916 12.5 15.9156 12.5 15.9156L12.5 6.25C12.5 5.90482 12.2202 5.625 11.875 5.625C11.5299 5.625 11.25 5.90482 11.25 6.25L11.2501 15.9083C11.2471 16.227 11.398 16.5077 11.398 16.5077C11.5488 16.7884 11.8107 16.9583 11.8107 16.9583L12.6686 17.5276C12.922 17.6968 13.2249 17.7304 13.2249 17.7304C13.5277 17.764 13.8121 17.6545 13.8121 17.6545C14.0964 17.5449 14.2984 17.3168 14.2984 17.3168C14.5005 17.0887 14.5753 16.7917 14.5753 16.7917L15.6064 12.6514Z" fill="#8D9CAD"/>
<path fill-rule="evenodd" clip-rule="evenodd" d="M11.875 13.1263C11.875 13.1263 11.6449 13.1263 11.2176 13.1758C11.2176 13.1758 10.3381 13.2776 9.39841 13.5331C9.39841 13.5331 6.37834 14.3546 3.9219 16.4125C3.9219 16.4125 3.64313 16.6432 3.28423 16.6893C3.28423 16.6893 2.92534 16.7354 2.59732 16.5827C2.59732 16.5827 2.2693 16.4299 2.07359 16.1256C2.07359 16.1256 1.87789 15.8212 1.875 15.4545L1.87502 3.29327C1.87502 3.29327 1.87789 2.93144 2.07359 2.62709C2.07359 2.62709 2.2693 2.32274 2.59732 2.17C2.59732 2.17 2.92534 2.01726 3.28423 2.06336C3.28423 2.06336 3.64312 2.10946 3.92481 2.34257C3.92481 2.34257 6.37833 4.3981 9.39841 5.21954C9.39841 5.21954 10.3381 5.47513 11.2176 5.5769C11.2176 5.5769 11.6449 5.62634 11.875 5.62634H15C15 5.62634 16.5533 5.62634 17.6517 6.72469C17.6517 6.72469 18.75 7.82304 18.75 9.37634C18.75 9.37634 18.75 10.9296 17.6517 12.028C17.6517 12.028 16.5533 13.1263 15 13.1263H11.875ZM11.875 11.8763H15C15 11.8763 16.0355 11.8763 16.7678 11.1441C16.7678 11.1441 17.5 10.4119 17.5 9.37634C17.5 9.37634 17.5 8.34081 16.7678 7.60858C16.7678 7.60858 16.0355 6.87634 15 6.87634H11.875C11.875 6.87634 10.7271 6.87634 9.07034 6.42572C9.07034 6.42572 5.78752 5.53281 3.12498 3.30319L3.125 15.4495C3.125 15.4495 5.78574 13.2204 9.07034 12.327C9.07034 12.327 10.7271 11.8763 11.875 11.8763Z" fill="#8D9CAD"/>
</svg>
