<svg width="21" height="20" viewBox="0 0 21 20" fill="none" xmlns="http://www.w3.org/2000/svg">
<path fill-rule="evenodd" clip-rule="evenodd" d="M17.9953 7.76352L8.44193 17.3169C8.32472 17.4341 8.16575 17.4999 7.99999 17.4999H4.24999C4.24999 17.4999 3.73223 17.4999 3.36611 17.1338C3.36611 17.1338 2.99999 16.7677 2.99999 16.2499L2.99999 12.7577C2.99999 12.7577 2.99913 12.5125 3.09313 12.2836C3.09313 12.2836 3.18713 12.0548 3.36165 11.8794L12.7377 2.5033C12.7377 2.5033 12.9106 2.32777 13.1422 2.23078C13.1422 2.23078 13.3739 2.13379 13.625 2.13379C13.625 2.13379 13.8761 2.13379 14.1078 2.23078C14.1078 2.23078 14.3394 2.32777 14.5156 2.5067L17.9966 5.98768C17.9966 5.98768 18.1722 6.16052 18.2691 6.39216C18.2691 6.39216 18.3661 6.62381 18.3661 6.87493C18.3661 6.87493 18.3661 7.12606 18.2691 7.3577C18.2691 7.3577 18.1731 7.58713 17.9966 7.76219L17.9953 7.76352ZM17.1161 6.87493L17.1127 6.87156L13.625 3.38379L13.6216 3.38719L4.24999 12.7588V16.2499H7.74111L17.1127 6.8783L17.1161 6.87493Z" fill="#0B2866"/>
<path d="M15.0577 9.81662L15.0581 9.81694C15.1753 9.93415 15.3342 10 15.5 10C15.6658 10 15.8247 9.93415 15.9419 9.81694C16.0592 9.69973 16.125 9.54076 16.125 9.375C16.125 9.20924 16.0592 9.05027 15.9419 8.93306L15.9416 8.93274L11.567 4.55813C11.4497 4.44085 11.2908 4.375 11.125 4.375C10.9592 4.375 10.8003 4.44085 10.6831 4.55806C10.5658 4.67527 10.5 4.83424 10.5 5C10.5 5.16576 10.5658 5.32473 10.6831 5.44194L15.0577 9.81662Z" fill="#0B2866"/>
<path d="M17.375 16.25H8C7.65482 16.25 7.375 16.5298 7.375 16.875C7.375 17.2202 7.65482 17.5 8 17.5H17.375C17.7202 17.5 18 17.2202 18 16.875C18 16.5298 17.7202 16.25 17.375 16.25Z" fill="#0B2866"/>
</svg>
