<svg width="20" height="20" viewBox="0 0 20 20" fill="none" xmlns="http://www.w3.org/2000/svg">
<path fill-rule="evenodd" clip-rule="evenodd" d="M17.4953 7.76254L7.94194 17.3159C7.82473 17.4331 7.66576 17.499 7.5 17.499H3.75C3.75 17.499 3.23223 17.499 2.86612 17.1328C2.86612 17.1328 2.5 16.7667 2.5 16.249L2.5 12.7568C2.5 12.7568 2.49914 12.5115 2.59314 12.2827C2.59314 12.2827 2.68714 12.0538 2.86165 11.8784L12.2377 2.50233C12.2377 2.50233 12.4106 2.32679 12.6422 2.2298C12.6422 2.2298 12.8739 2.13281 13.125 2.13281C13.125 2.13281 13.3761 2.13281 13.6078 2.2298C13.6078 2.2298 13.8394 2.32679 14.0156 2.50572L17.4966 5.9867C17.4966 5.9867 17.6722 6.15954 17.7692 6.39118C17.7692 6.39118 17.8661 6.62283 17.8661 6.87395C17.8661 6.87395 17.8661 7.12508 17.7692 7.35672C17.7692 7.35672 17.6731 7.58616 17.4966 7.76121L17.4953 7.76254ZM16.6161 6.87396L16.6127 6.87058L13.125 3.38281L13.1216 3.38621L3.75 12.7578V16.249H7.24112L16.6127 6.87733L16.6161 6.87396Z" fill="white"/>
<path d="M14.5577 9.81662L14.5581 9.81694C14.6753 9.93415 14.8342 10 15 10C15.1658 10 15.3247 9.93415 15.4419 9.81694C15.5592 9.69973 15.625 9.54076 15.625 9.375C15.625 9.20924 15.5592 9.05027 15.4419 8.93306L15.4416 8.93274L11.067 4.55813C10.9497 4.44085 10.7908 4.375 10.625 4.375C10.4592 4.375 10.3003 4.44085 10.1831 4.55806C10.0658 4.67527 10 4.83424 10 5C10 5.16576 10.0658 5.32473 10.1831 5.44194L14.5577 9.81662Z" fill="white"/>
<path d="M16.875 16.25H7.5C7.15482 16.25 6.875 16.5298 6.875 16.875C6.875 17.2202 7.15482 17.5 7.5 17.5H16.875C17.2202 17.5 17.5 17.2202 17.5 16.875C17.5 16.5298 17.2202 16.25 16.875 16.25Z" fill="white"/>
</svg>
