<svg width="20" height="20" viewBox="0 0 20 20" fill="none" xmlns="http://www.w3.org/2000/svg">
<path fill-rule="evenodd" clip-rule="evenodd" d="M9.99219 0.625C9.99219 0.625 11.1572 0.625 11.9809 1.44876C11.9809 1.44876 12.8047 2.27252 12.8047 3.4375C12.8047 3.4375 12.8047 4.60248 11.9809 5.42624C11.9809 5.42624 11.1572 6.25 9.99219 6.25C9.99219 6.25 8.82721 6.25 8.00345 5.42624C8.00345 5.42624 7.17969 4.60248 7.17969 3.4375C7.17969 3.4375 7.17969 2.27252 8.00345 1.44876C8.00345 1.44876 8.82721 0.625 9.99219 0.625ZM9.99219 1.875C9.99219 1.875 9.34498 1.875 8.88733 2.33265C8.88733 2.33265 8.42969 2.79029 8.42969 3.4375C8.42969 3.4375 8.42969 4.08471 8.88733 4.54235C8.88733 4.54235 9.34498 5 9.99219 5C9.99219 5 10.6394 5 11.097 4.54235C11.097 4.54235 11.5547 4.08471 11.5547 3.4375C11.5547 3.4375 11.5547 2.79029 11.097 2.33265C11.097 2.33265 10.6394 1.875 9.99219 1.875Z" fill="#8D9CAD"/>
<path fill-rule="evenodd" clip-rule="evenodd" d="M13.2237 12.2456L14.7691 17.1325C14.7691 17.1325 14.8921 17.3912 14.9149 17.6788C14.9149 17.6788 14.9401 17.9974 14.8383 18.3003C14.8383 18.3003 14.7364 18.6032 14.5238 18.8418C14.5238 18.8418 14.3112 19.0803 14.022 19.2163C14.022 19.2163 13.7327 19.3522 13.4134 19.3637C13.4134 19.3637 13.094 19.3752 12.7958 19.2603C12.7958 19.2603 12.4976 19.1455 12.2684 18.9228C12.2684 18.9228 12.0606 18.7209 11.9398 18.4597L9.99243 15.3926L8.03893 18.4694C8.03893 18.4694 7.90997 18.7261 7.69678 18.921C7.69678 18.921 7.46696 19.131 7.17427 19.2371C7.17427 19.2371 6.88158 19.3432 6.57057 19.3292C6.57057 19.3292 6.25955 19.3152 5.97756 19.1833C5.97756 19.1833 5.69557 19.0513 5.48554 18.8215C5.48554 18.8215 5.2755 18.5917 5.1694 18.299C5.1694 18.299 5.0633 18.0063 5.07728 17.6953C5.07728 17.6953 5.09024 17.4072 5.20442 17.144L6.75823 12.2478L5.64308 13.113C5.64308 13.113 5.18798 13.5153 4.57706 13.5021C4.57706 13.5021 3.95237 13.4886 3.50925 13.0481C3.50925 13.0481 3.06612 12.6076 3.04893 11.983C3.04893 11.983 3.03208 11.3709 3.43339 10.9128L6.51476 6.95216C6.53107 6.9312 6.54869 6.91131 6.56752 6.8926C6.56752 6.8926 7.20932 6.25485 8.11743 6.25H11.8688C11.8688 6.25 12.304 6.25093 12.7055 6.41893C12.7055 6.41893 13.107 6.58693 13.4132 6.89624C13.4306 6.91389 13.447 6.93256 13.4623 6.95216L16.5504 10.9214C16.5504 10.9214 16.9304 11.384 16.9031 11.9835C16.9031 11.9835 16.8754 12.5887 16.4471 13.0171C16.4471 13.0171 16.0187 13.4455 15.4134 13.4731C15.4134 13.4731 14.8142 13.5005 14.3517 13.1207L13.2237 12.2456ZM13.5918 17.5556L11.4278 10.7119C11.3778 10.5538 11.3926 10.3824 11.4691 10.2353C11.5455 10.0882 11.6772 9.9775 11.8352 9.92752C12.031 9.86563 12.2446 9.9038 12.4068 10.0296L15.1256 12.139C15.1312 12.1434 15.1368 12.1479 15.1423 12.1524C15.1423 12.1524 15.2354 12.23 15.3564 12.2244C15.3564 12.2244 15.4775 12.2189 15.5632 12.1332C15.5632 12.1332 15.6488 12.0476 15.6544 11.9265C15.6544 11.9265 15.6599 11.8055 15.5824 11.7123C15.578 11.7071 15.5737 11.7017 15.5695 11.6963L12.5015 7.75283C12.5015 7.75283 12.3791 7.63739 12.223 7.57205C12.223 7.57205 12.0517 7.5004 11.8661 7.5L8.11743 7.5C8.11743 7.5 7.74524 7.502 7.47415 7.75468L4.4076 11.6963C4.39837 11.7081 4.38872 11.7197 4.37866 11.7308C4.37866 11.7308 4.29502 11.8237 4.29846 11.9486C4.29846 11.9486 4.30189 12.0735 4.39052 12.1616C4.39052 12.1616 4.47914 12.2497 4.60408 12.2524C4.60408 12.2524 4.72902 12.2551 4.82137 12.1709C4.83359 12.1598 4.84624 12.1491 4.85931 12.139L7.57806 10.0296C7.85078 9.81804 8.24339 9.86759 8.45498 10.1403C8.58096 10.3027 8.61907 10.5166 8.5569 10.7125L6.38503 17.5562C6.37681 17.5821 6.36692 17.6075 6.35541 17.6321C6.35541 17.6321 6.32884 17.6888 6.32602 17.7515C6.32602 17.7515 6.32321 17.8141 6.34457 17.873C6.34457 17.873 6.36594 17.932 6.40823 17.9782C6.40823 17.9782 6.45052 18.0245 6.5073 18.0511C6.5073 18.0511 6.56408 18.0777 6.62671 18.0805C6.62671 18.0805 6.68934 18.0833 6.74828 18.0619C6.74828 18.0619 6.80721 18.0406 6.85349 17.9983C6.85349 17.9983 6.89976 17.956 6.92633 17.8992C6.93764 17.875 6.95049 17.8516 6.9648 17.8291L9.4648 13.8916C9.64982 13.6002 10.036 13.5139 10.3274 13.6989C10.405 13.7482 10.4708 13.814 10.5201 13.8916L13.0201 17.8291C13.039 17.8589 13.0554 17.8902 13.069 17.9228C13.069 17.9228 13.0937 17.9818 13.1395 18.0263C13.1395 18.0263 13.1853 18.0709 13.245 18.0938C13.245 18.0938 13.3046 18.1168 13.3685 18.1145C13.3685 18.1145 13.4324 18.1122 13.4902 18.085C13.4902 18.085 13.5481 18.0578 13.5906 18.0101C13.5906 18.0101 13.6331 17.9624 13.6535 17.9018C13.6535 17.9018 13.6738 17.8412 13.6688 17.7775C13.6688 17.7775 13.6638 17.7138 13.6341 17.6572C13.6171 17.6246 13.6029 17.5907 13.5918 17.5556Z" fill="#8D9CAD"/>
</svg>
