<svg width="24" height="24" viewBox="0 0 24 24" fill="none" xmlns="http://www.w3.org/2000/svg">
<path d="M18.8656 12.3382L13.6812 17.8382C13.5781 17.9475 13.4094 18.0007 13.2969 18.0007C13.1723 18.0007 13.0472 17.9577 12.9481 17.8708C12.7365 17.6852 12.7208 17.3689 12.9132 17.1648L17.3094 12.5007H5.51844C5.23184 12.5007 5 12.2771 5 12.0288C5 11.7805 5.23191 11.5007 5.51844 11.5007H17.3091L12.9122 6.83503C12.7198 6.63093 12.7355 6.3144 12.9471 6.12909C13.1593 5.94453 13.4868 5.95818 13.6799 6.16328L18.8643 11.6633C19.0437 11.8538 19.0438 12.1475 18.8656 12.3382Z" fill="#8D9CAD"/>
</svg>
