<?xml version="1.0" encoding="utf-8"?>
<svg width="21" height="20" viewBox="0 0 21 20" fill="none" xmlns="http://www.w3.org/2000/svg">
  <path d="M17.375 3.75H3.625C3.27982 3.75 3 4.02982 3 4.375C3 4.72018 3.27982 5 3.625 5H17.375C17.7202 5 18 4.72018 18 4.375C18 4.02982 17.7202 3.75 17.375 3.75Z" style="fill: rgb(255, 255, 255);"/>
  <path d="M8 8.125V13.125C8 13.4702 8.27982 13.75 8.625 13.75C8.97018 13.75 9.25 13.4702 9.25 13.125V8.125C9.25 7.77982 8.97018 7.5 8.625 7.5C8.27982 7.5 8 7.77982 8 8.125Z" style="fill: rgb(255, 255, 255);"/>
  <path d="M11.75 8.125V13.125C11.75 13.4702 12.0298 13.75 12.375 13.75C12.7202 13.75 13 13.4702 13 13.125V8.125C13 7.77982 12.7202 7.5 12.375 7.5C12.0298 7.5 11.75 7.77982 11.75 8.125Z" style="fill: rgb(255, 255, 255);"/>
  <path d="M5.5 16.25V4.375C5.5 4.02982 5.22018 3.75 4.875 3.75C4.52982 3.75 4.25 4.02982 4.25 4.375V16.25C4.25 16.7678 4.61612 17.1339 4.61612 17.1339C4.98223 17.5 5.5 17.5 5.5 17.5H15.5C16.0178 17.5 16.3839 17.1339 16.3839 17.1339C16.75 16.7678 16.75 16.25 16.75 16.25V4.375C16.75 4.02982 16.4702 3.75 16.125 3.75C15.7798 3.75 15.5 4.02982 15.5 4.375V16.25H5.5Z" style="fill: rgb(255, 255, 255);"/>
  <path d="M7.29918 1.79917C6.75 2.34835 6.75 3.125 6.75 3.125V4.375C6.75 4.72018 7.02982 5 7.375 5C7.72018 5 8 4.72018 8 4.375V3.125C8 2.86612 8.18306 2.68306 8.18306 2.68306C8.36612 2.5 8.625 2.5 8.625 2.5H12.375C12.6339 2.5 12.8169 2.68306 12.8169 2.68306C13 2.86612 13 3.125 13 3.125V4.375C13 4.72018 13.2798 5 13.625 5C13.9702 5 14.25 4.72018 14.25 4.375V3.125C14.25 2.34835 13.7008 1.79917 13.7008 1.79917C13.1517 1.25 12.375 1.25 12.375 1.25H8.625C7.84835 1.25 7.29918 1.79917 7.29918 1.79917Z" style="fill: rgb(255, 255, 255);"/>
</svg>