<svg width="29" height="28" viewBox="0 0 29 28" fill="none" xmlns="http://www.w3.org/2000/svg">
<path d="M13.625 12.25V15.75C13.625 16.2332 14.0168 16.625 14.5 16.625C14.9832 16.625 15.375 16.2332 15.375 15.75V12.25C15.375 11.7668 14.9832 11.375 14.5 11.375C14.0168 11.375 13.625 11.7668 13.625 12.25Z" fill="#0B2866"/>
<path fill-rule="evenodd" clip-rule="evenodd" d="M12.2334 3.93638C12.2334 3.93638 12.5823 3.32884 13.1887 2.97722C13.1887 2.97722 13.7969 2.62451 14.5 2.62451C14.5 2.62451 15.2031 2.62451 15.8113 2.97722C15.8113 2.97722 16.4196 3.32994 16.7688 3.94018L26.3916 20.5614C26.3916 20.5614 26.7432 21.1703 26.7438 21.8725C26.7438 21.8725 26.7445 22.5746 26.3945 23.1833C26.3945 23.1833 26.0445 23.792 25.4373 24.1446C25.4373 24.1446 24.8302 24.4973 24.1281 24.4998L4.875 24.4998C4.875 24.4998 4.1698 24.4973 3.56266 24.1446C3.56266 24.1446 2.95553 23.792 2.60554 23.1833C2.60554 23.1833 2.25554 22.5746 2.25617 21.8725C2.25617 21.8725 2.25679 21.1703 2.60786 20.5623L12.2312 3.94017L12.2334 3.93638ZM4.1234 21.4373L13.7478 4.8134L13.75 4.80951L13.7503 4.80901L13.7505 4.80866C13.7505 4.80866 13.8659 4.60747 14.0665 4.4911C14.0665 4.4911 14.2676 4.37451 14.5 4.37451C14.5 4.37451 14.7324 4.37451 14.9335 4.4911C14.9335 4.4911 15.1345 4.60769 15.2499 4.8094L24.8771 21.4382C24.8771 21.4382 24.9936 21.64 24.9938 21.874C24.9938 21.874 24.994 22.1081 24.8774 22.311C24.8774 22.311 24.7607 22.5139 24.5583 22.6314C24.5583 22.6314 24.356 22.749 24.1219 22.7498L4.875 22.7498C4.875 22.7498 4.64404 22.749 4.44166 22.6314C4.44166 22.6314 4.23929 22.5139 4.12262 22.311C4.12262 22.311 4.00596 22.1081 4.00617 21.874C4.00617 21.874 4.00637 21.64 4.1234 21.4373Z" fill="#0B2866"/>
<path d="M15.8125 19.6875C15.8125 20.4124 15.2248 21 14.5 21C13.7752 21 13.1875 20.4124 13.1875 19.6875C13.1875 18.9626 13.7752 18.375 14.5 18.375C15.2248 18.375 15.8125 18.9626 15.8125 19.6875Z" fill="#0B2866"/>
</svg>
