<svg width="10" height="10" viewBox="0 0 10 10" fill="none" xmlns="http://www.w3.org/2000/svg">
<path d="M1.46538 0.580519C1.2213 0.336442 0.825573 0.336442 0.581496 0.580519C0.337418 0.824597 0.337418 1.22033 0.581496 1.4644L4.11705 4.99996L0.581543 8.53547C0.337465 8.77955 0.337465 9.17528 0.581543 9.41935C0.82562 9.66343 1.22135 9.66343 1.46543 9.41935L5.00094 5.88384L8.53645 9.41935C8.78052 9.66343 9.17625 9.66343 9.42033 9.41935C9.66441 9.17528 9.66441 8.77955 9.42033 8.53547L5.88482 4.99996L9.42038 1.4644C9.66446 1.22033 9.66446 0.824598 9.42038 0.58052C9.1763 0.336442 8.78057 0.336442 8.53649 0.58052L5.00094 4.11608L1.46538 0.580519Z" fill="#0B2866"/>
</svg>
